<svg xmlns="http://www.w3.org/2000/svg" xmlns:xlink="http://www.w3.org/1999/xlink" width="500" zoomAndPan="magnify" viewBox="0 0 375 374.999991" height="500" preserveAspectRatio="xMidYMid meet" version="1.0"><defs><g/><clipPath id="41a54bfbe2"><path d="M 57.164062 128 L 60 128 L 60 146 L 57.164062 146 Z M 57.164062 128 " clip-rule="nonzero"/></clipPath><clipPath id="bcbb22a49d"><path d="M 181 286 L 191 286 L 191 288.355469 L 181 288.355469 Z M 181 286 " clip-rule="nonzero"/></clipPath><clipPath id="27c9e51a5b"><path d="M 190 286 L 199 286 L 199 288.355469 L 190 288.355469 Z M 190 286 " clip-rule="nonzero"/></clipPath><clipPath id="1b5014ba23"><path d="M 205 287 L 212 287 L 212 288.355469 L 205 288.355469 Z M 205 287 " clip-rule="nonzero"/></clipPath><clipPath id="0803ca467a"><path d="M 269 211 L 272.414062 211 L 272.414062 215 L 269 215 Z M 269 211 " clip-rule="nonzero"/></clipPath></defs><path fill="#ffffff" d="M 104.425781 249.933594 C 101.941406 247.378906 97.59375 243.167969 95.804688 242.039062 C 95.707031 241.988281 95.5625 241.949219 95.453125 241.949219 C 95.484375 243.160156 106.78125 254.101562 108.046875 254.144531 C 108.015625 253.703125 106.058594 251.613281 104.425781 249.933594 " fill-opacity="1" fill-rule="nonzero"/><path fill="#ffffff" d="M 119.101562 260.53125 C 116.488281 258.300781 111.753906 254.652344 109.417969 253.75 C 109.246094 253.703125 108.984375 253.632812 108.898438 253.714844 C 108.445312 254.121094 111.414062 256.917969 114.46875 259.273438 C 118.386719 262.289062 121.957031 264.484375 122.597656 264.269531 C 122.808594 263.796875 120.496094 261.726562 119.101562 260.53125 " fill-opacity="1" fill-rule="nonzero"/><path fill="#ffffff" d="M 70.261719 203.5 C 70.203125 203.441406 70.101562 203.382812 70.023438 203.382812 C 70 204.964844 77.546875 219.398438 78.433594 219.46875 C 78.445312 218.828125 76.9375 215.667969 76.039062 213.84375 C 74.464844 210.652344 71.507812 205.023438 70.261719 203.5 " fill-opacity="1" fill-rule="nonzero"/><path fill="#ffffff" d="M 79.65625 218.988281 C 79.5 218.914062 79.304688 218.820312 79.207031 218.921875 C 78.226562 219.917969 87.085938 233.015625 89.1875 233.671875 C 90 233.925781 89.113281 231.75 87.035156 228.386719 C 85.09375 225.238281 81.519531 220.242188 79.65625 218.988281 " fill-opacity="1" fill-rule="nonzero"/><path fill="#ffffff" d="M 100.289062 241.367188 C 98.140625 238.503906 94.007812 234.011719 91.523438 232.992188 C 91.320312 232.941406 91.035156 232.871094 90.875 232.980469 C 89.167969 234.164062 99.15625 245.851562 102.246094 246.285156 C 103.382812 246.445312 102.578125 244.421875 100.289062 241.367188 " fill-opacity="1" fill-rule="nonzero"/><path fill="#ffffff" d="M 63.605469 186.667969 C 63.703125 186.976562 63.855469 187.433594 64.046875 187.992188 C 63.894531 187.542969 63.742188 187.085938 63.601562 186.65625 L 63.605469 186.667969 " fill-opacity="1" fill-rule="nonzero"/><path fill="#ffffff" d="M 74.597656 208.832031 C 75.785156 209.503906 75.578125 206.835938 74.113281 202.625 C 72.851562 198.992188 70.226562 193.265625 68.34375 191.925781 C 68.234375 191.878906 68.074219 191.800781 67.953125 191.824219 C 65.992188 192.203125 71.890625 207.300781 74.597656 208.832031 " fill-opacity="1" fill-rule="nonzero"/><path fill="#ffffff" d="M 85.625 223.652344 C 87.25 224.1875 87.132812 221.632812 85.355469 217.714844 C 83.820312 214.324219 80.488281 209.042969 77.894531 207.925781 C 77.671875 207.875 77.367188 207.800781 77.140625 207.945312 C 74.871094 209.367188 81.929688 222.429688 85.625 223.652344 " fill-opacity="1" fill-rule="nonzero"/><path fill="#ffffff" d="M 98.582031 236.839844 C 100.945312 237.617188 101.128906 235.128906 98.988281 231.296875 C 96.96875 227.675781 92.980469 223.277344 90.058594 222.492188 C 89.777344 222.460938 89.390625 222.414062 89.09375 222.574219 C 86.300781 224.046875 93.75 235.246094 98.582031 236.839844 " fill-opacity="1" fill-rule="nonzero"/><path fill="#ffffff" d="M 61.699219 174.761719 C 61.640625 174.707031 61.546875 174.640625 61.464844 174.617188 C 60.28125 175.355469 64.929688 192.289062 66.4375 192.734375 C 67.035156 192.363281 65.9375 187.597656 65.585938 186.148438 C 64.726562 182.589844 62.910156 176.351562 61.699219 174.761719 " fill-opacity="1" fill-rule="nonzero"/><path fill="#ffffff" d="M 73.585938 196.910156 C 75.496094 197.96875 76.191406 194.917969 75.136719 190.113281 C 74.296875 186.292969 71.960938 180.386719 69.40625 179.230469 C 69.234375 179.191406 68.996094 179.144531 68.824219 179.179688 C 65.535156 179.902344 69.496094 194.648438 73.585938 196.910156 " fill-opacity="1" fill-rule="nonzero"/><path fill="#ffffff" d="M 84.34375 212.09375 C 87.074219 213.480469 88.148438 210.484375 86.644531 205.679688 C 85.503906 202.039062 82.40625 196.488281 79.085938 195.546875 C 78.863281 195.523438 78.558594 195.496094 78.339844 195.546875 C 74.449219 196.46875 79.160156 209.460938 84.34375 212.09375 " fill-opacity="1" fill-rule="nonzero"/><path fill="#ffffff" d="M 97.367188 225.792969 C 100.960938 227.445312 102.46875 224.574219 100.527344 219.765625 C 99.152344 216.363281 95.460938 211.269531 91.554688 210.597656 C 91.199219 210.585938 90.710938 210.574219 90.277344 210.777344 C 86.632812 212.503906 91.667969 223.167969 97.367188 225.792969 " fill-opacity="1" fill-rule="nonzero"/><path fill="#ffffff" d="M 65.207031 180.242188 C 66.558594 181.449219 67.175781 178.441406 66.582031 173.539062 C 66.117188 169.710938 64.65625 163.71875 62.867188 162.382812 C 62.746094 162.335938 62.574219 162.265625 62.445312 162.289062 C 60.011719 162.726562 62.308594 177.660156 65.207031 180.242188 " fill-opacity="1" fill-rule="nonzero"/><path fill="#ffffff" d="M 79.128906 176.597656 C 78.710938 172.746094 76.671875 166.898438 73.460938 165.953125 C 73.230469 165.929688 72.917969 165.90625 72.695312 165.960938 C 68.726562 166.886719 70.394531 179.941406 74.925781 183.421875 C 77.703125 185.550781 79.746094 182.234375 79.128906 176.597656 " fill-opacity="1" fill-rule="nonzero"/><path fill="#ffffff" d="M 90.679688 192.21875 C 89.914062 188.371094 87.082031 182.632812 83.191406 181.925781 C 82.914062 181.921875 82.53125 181.917969 82.261719 181.988281 C 77.746094 183.148438 80.128906 195.167969 85.613281 198.910156 C 89.355469 201.460938 91.863281 198.144531 90.679688 192.21875 " fill-opacity="1" fill-rule="nonzero"/><path fill="#ffffff" d="M 104.535156 206.738281 C 103.507812 203.066406 100.070312 197.691406 95.648438 197.238281 C 95.335938 197.25 94.910156 197.269531 94.605469 197.355469 C 89.65625 198.769531 92.902344 210.164062 99.179688 213.398438 C 103.4375 215.589844 106.089844 212.292969 104.535156 206.738281 " fill-opacity="1" fill-rule="nonzero"/><path fill="#ffffff" d="M 67.085938 167.222656 C 69.003906 168.871094 70.617188 165.699219 70.539062 160.433594 C 70.484375 156.605469 69.324219 150.703125 66.921875 149.574219 C 66.746094 149.539062 66.5 149.496094 66.328125 149.53125 C 62.898438 150.242188 63.496094 164.128906 67.085938 167.222656 " fill-opacity="1" fill-rule="nonzero"/><path fill="#ffffff" d="M 85.761719 162.496094 C 85.683594 158.625 83.914062 152.867188 80.21875 152.175781 C 80.078125 152.171875 79.890625 152.15625 79.75 152.167969 C 74.839844 152.519531 74.289062 164.300781 78.964844 168.972656 C 82.332031 172.339844 85.886719 168.949219 85.761719 162.496094 " fill-opacity="1" fill-rule="nonzero"/><path fill="#ffffff" d="M 97.050781 177.65625 C 96.636719 173.773438 94.113281 168.09375 89.800781 167.628906 C 89.640625 167.632812 89.425781 167.632812 89.265625 167.648438 C 83.714844 168.3125 84.160156 180.1875 89.902344 184.589844 C 93.996094 187.726562 97.738281 184.101562 97.050781 177.65625 " fill-opacity="1" fill-rule="nonzero"/><path fill="#ffffff" d="M 110.722656 192.246094 C 110.007812 188.371094 106.824219 182.808594 101.992188 182.578125 C 101.816406 182.59375 101.574219 182.601562 101.398438 182.628906 C 95.691406 183.53125 96.523438 194.554688 102.632812 199.011719 C 107.578125 202.617188 111.960938 198.949219 110.722656 192.246094 " fill-opacity="1" fill-rule="nonzero"/><path fill="#ffffff" d="M 71.347656 153.347656 C 73.785156 156.164062 76.738281 152.902344 77.191406 146.882812 C 77.480469 143.070312 76.554688 137.296875 73.589844 136.394531 C 73.476562 136.386719 73.328125 136.359375 73.214844 136.363281 C 69.097656 136.433594 67.699219 149.128906 71.347656 153.347656 " fill-opacity="1" fill-rule="nonzero"/><path fill="#ffffff" d="M 85.679688 154.625 C 89.152344 158.554688 93.824219 155.007812 94.15625 148.195312 C 94.347656 144.34375 92.8125 138.714844 88.808594 138.257812 C 82.808594 138.515625 81.554688 149.953125 85.679688 154.625 " fill-opacity="1" fill-rule="nonzero"/><path fill="#ffffff" d="M 105.203125 162.835938 C 105.058594 158.941406 102.777344 153.351562 98.164062 153.109375 C 91.421875 153.699219 91.140625 165.28125 96.261719 169.761719 C 100.527344 173.496094 105.457031 169.675781 105.203125 162.835938 " fill-opacity="1" fill-rule="nonzero"/><path fill="#ffffff" d="M 108.652344 183.871094 C 113.757812 188.265625 119.4375 184.355469 118.609375 177.011719 C 118.171875 173.105469 115.242188 167.589844 110.101562 167.574219 C 103.109375 168.4375 103.15625 179.136719 108.652344 183.871094 " fill-opacity="1" fill-rule="nonzero"/><path fill="#ffffff" d="M 85.808594 133.222656 C 86.359375 129.445312 85.632812 123.832031 82.296875 123.175781 C 76.984375 123.109375 74.808594 135.359375 78.230469 139.617188 C 80.910156 142.953125 84.875 139.605469 85.808594 133.222656 " fill-opacity="1" fill-rule="nonzero"/><path fill="#ffffff" d="M 129.121094 248.960938 C 133.308594 250.019531 134.96875 247.378906 132.675781 243.308594 C 131.050781 240.425781 126.699219 236.296875 122.101562 236.136719 C 121.476562 236.183594 120.828125 236.230469 120.199219 236.671875 C 116.644531 239.144531 122.566406 247.300781 129.121094 248.960938 " fill-opacity="1" fill-rule="nonzero"/><path fill="#ffffff" d="M 136.769531 231.394531 C 135.46875 228.214844 131.332031 223.75 126.214844 223.78125 C 125.742188 223.835938 125.089844 223.910156 124.484375 224.199219 C 119.8125 226.410156 123.488281 234.898438 130.269531 237.558594 C 135.492188 239.609375 138.832031 236.441406 136.769531 231.394531 " fill-opacity="1" fill-rule="nonzero"/><path fill="#ffffff" d="M 142.953125 217.921875 C 141.929688 214.457031 137.984375 209.679688 132.429688 209.910156 C 132.222656 209.941406 131.953125 209.972656 131.75 210.011719 C 125.632812 211.304688 126.757812 220.378906 133.519531 224.292969 C 139.515625 227.757812 144.800781 224.183594 142.953125 217.921875 " fill-opacity="1" fill-rule="nonzero"/><path fill="#ffffff" d="M 140.378906 194.59375 C 140.160156 194.632812 139.867188 194.675781 139.652344 194.726562 C 133.046875 196.324219 133.421875 206.164062 140.242188 210.210938 C 146.246094 213.773438 152.296875 209.640625 150.859375 202.964844 C 150.054688 199.238281 146.273438 194.175781 140.378906 194.59375 " fill-opacity="1" fill-rule="nonzero"/><path fill="#ffffff" d="M 130.128906 258.558594 C 133 258.933594 133.351562 256.765625 130.933594 253.621094 C 128.957031 251.050781 124.367188 247.273438 120.359375 246.925781 C 119.824219 246.9375 119.269531 246.953125 118.8125 247.304688 C 115.976562 249.496094 124.332031 257.804688 130.128906 258.558594 " fill-opacity="1" fill-rule="nonzero"/><path fill="#ffffff" d="M 133.261719 266.433594 C 134.863281 266.394531 134.246094 264.746094 131.726562 262.335938 C 129.527344 260.230469 124.71875 256.691406 121.179688 256.152344 C 120.738281 256.132812 120.28125 256.109375 120 256.382812 C 118.136719 258.171875 129.167969 266.53125 133.261719 266.433594 " fill-opacity="1" fill-rule="nonzero"/><path fill="#ffffff" d="M 113.914062 226.421875 C 119.3125 229.074219 122.832031 225.574219 120.761719 219.613281 C 119.464844 215.882812 115.269531 210.53125 110.007812 210.3125 C 109.636719 210.34375 109.132812 210.390625 108.777344 210.496094 C 103.230469 212.160156 106.6875 222.875 113.914062 226.421875 " fill-opacity="1" fill-rule="nonzero"/><path fill="#ffffff" d="M 112.941406 238.558594 C 117.191406 240.007812 118.953125 236.964844 116.636719 232.179688 C 114.980469 228.753906 110.53125 223.730469 105.828125 223.292969 C 105.402344 223.304688 104.8125 223.324219 104.292969 223.566406 C 99.824219 225.648438 105.886719 236.15625 112.941406 238.558594 " fill-opacity="1" fill-rule="nonzero"/><path fill="#ffffff" d="M 65.554688 144.144531 C 65.902344 140.046875 65.589844 133.664062 63.8125 132.296875 C 63.675781 132.246094 63.484375 132.183594 63.34375 132.207031 C 60.335938 132.726562 59.476562 148.710938 62.3125 151.421875 C 63.652344 152.707031 65.109375 149.441406 65.554688 144.144531 " fill-opacity="1" fill-rule="nonzero"/><path fill="#ffffff" d="M 59.585938 144.550781 C 59.511719 144.488281 59.394531 144.394531 59.296875 144.402344 C 57.488281 144.601562 58.308594 161.992188 60.21875 163.988281 C 61.027344 164.835938 61.558594 161.738281 61.460938 156.785156 C 61.375 152.65625 60.738281 146.132812 59.585938 144.550781 " fill-opacity="1" fill-rule="nonzero"/><path fill="#ffffff" d="M 126.367188 205.53125 C 125.457031 201.828125 121.804688 196.613281 116.539062 196.617188 C 116.15625 196.664062 115.644531 196.734375 115.277344 196.855469 C 109.71875 198.6875 111.394531 208.53125 117.914062 212.339844 C 123.328125 215.503906 127.910156 211.8125 126.367188 205.53125 " fill-opacity="1" fill-rule="nonzero"/><path fill="#ffffff" d="M 123.960938 197.257812 C 129.632812 201.296875 135.535156 197.1875 134.308594 190.050781 C 133.636719 186.152344 130.183594 180.75 124.605469 180.960938 C 124.398438 180.992188 124.117188 181.023438 123.914062 181.066406 C 117.585938 182.453125 117.613281 192.742188 123.960938 197.257812 " fill-opacity="1" fill-rule="nonzero"/><path fill="#ffffff" d="M 113.753906 248.398438 C 116.476562 248.972656 116.777344 246.652344 114.441406 243.121094 C 112.550781 240.257812 108.203125 235.957031 104.464844 235.359375 C 103.96875 235.339844 103.457031 235.320312 103.035156 235.671875 C 100.484375 237.773438 108.496094 247.289062 113.753906 248.398438 " fill-opacity="1" fill-rule="nonzero"/><path fill="#ffffff" d="M 117.046875 257.105469 C 118.46875 257.164062 117.773438 255.300781 115.359375 252.574219 C 113.082031 250.003906 108.511719 246.039062 105.476562 245.265625 C 105.078125 245.214844 104.699219 245.167969 104.484375 245.441406 C 103.039062 247.261719 113.492188 256.964844 117.046875 257.105469 " fill-opacity="1" fill-rule="nonzero"/><g clip-path="url(#41a54bfbe2)"><path fill="#ffffff" d="M 59.191406 128.136719 C 59.175781 128.097656 59.15625 128.046875 59.140625 128.011719 C 59.101562 128.007812 59.050781 128.007812 59.015625 128.003906 C 58.070312 129.59375 57.164062 144.09375 57.894531 145.839844 C 57.933594 145.839844 57.984375 145.84375 58.019531 145.84375 C 58.433594 145.085938 58.777344 141.476562 58.949219 139.386719 C 59.234375 135.882812 59.550781 129.730469 59.191406 128.136719 " fill-opacity="1" fill-rule="nonzero"/></g><path fill="#ffffff" d="M 63.007812 127.378906 C 63.703125 123.691406 64.285156 117.890625 63.398438 116.542969 C 63.328125 116.488281 63.214844 116.414062 63.125 116.425781 C 61.179688 116.640625 58.683594 132.144531 60.316406 133.886719 C 61.011719 134.625 62.167969 131.828125 63.007812 127.378906 " fill-opacity="1" fill-rule="nonzero"/><path fill="#ffffff" d="M 69.59375 115.121094 C 70.628906 111.5 71.46875 105.890625 70.097656 104.75 C 70.035156 104.730469 69.960938 104.691406 69.898438 104.679688 C 67.21875 104.238281 63.25 118.132812 65.125 121.386719 C 66.09375 123.066406 68.140625 120.199219 69.59375 115.121094 " fill-opacity="1" fill-rule="nonzero"/><path fill="#ffffff" d="M 72.367188 108.84375 C 73.519531 110.945312 76.371094 108.015625 78.351562 102.691406 C 79.664062 99.160156 80.710938 93.773438 78.929688 92.851562 C 75.597656 92.261719 70.324219 105.113281 72.367188 108.84375 " fill-opacity="1" fill-rule="nonzero"/><path fill="#ffffff" d="M 71.890625 130.789062 C 72.554688 127.054688 72.527344 121.332031 70.378906 120.289062 C 70.292969 120.269531 70.179688 120.238281 70.09375 120.234375 C 66.621094 120.046875 64.074219 133.363281 66.847656 137.191406 C 68.453125 139.414062 70.90625 136.300781 71.890625 130.789062 " fill-opacity="1" fill-rule="nonzero"/><path fill="#ffffff" d="M 74 123.871094 C 75.84375 126.582031 79.246094 123.398438 80.738281 117.5625 C 81.675781 113.898438 81.835938 108.363281 79.242188 107.546875 C 74.621094 107.179688 71.390625 120.03125 74 123.871094 " fill-opacity="1" fill-rule="nonzero"/><path fill="#ffffff" d="M 104.546875 132.695312 C 104.933594 128.898438 103.589844 123.445312 99.386719 123.214844 C 93.484375 123.753906 91.191406 134.289062 94.710938 138.980469 C 98.117188 143.519531 103.8125 139.875 104.546875 132.695312 " fill-opacity="1" fill-rule="nonzero"/><path fill="#ffffff" d="M 115.34375 146.695312 C 115.402344 142.835938 113.316406 137.382812 108.5 137.359375 C 101.746094 138.214844 100.351562 148.832031 104.933594 153.527344 C 109.207031 157.90625 115.238281 153.945312 115.34375 146.695312 " fill-opacity="1" fill-rule="nonzero"/><path fill="#ffffff" d="M 117.613281 167.675781 C 122.625 171.855469 128.9375 167.613281 128.503906 160.351562 C 128.269531 156.449219 125.535156 151.035156 120.191406 151.226562 C 112.828125 152.378906 112.179688 163.140625 117.613281 167.675781 " fill-opacity="1" fill-rule="nonzero"/><path fill="#ffffff" d="M 134.109375 164.714844 C 126.777344 166.066406 126.265625 176.128906 131.675781 180.785156 C 137.28125 185.613281 144.542969 181.234375 143.632812 173.578125 C 143.164062 169.65625 139.898438 164.3125 134.109375 164.714844 " fill-opacity="1" fill-rule="nonzero"/><path fill="#ffffff" d="M 93.113281 108.949219 C 87.679688 109.21875 84.597656 120.371094 87.582031 124.730469 C 90.210938 128.566406 95.09375 125.113281 96.4375 118.472656 C 97.1875 114.769531 96.652344 109.367188 93.113281 108.949219 " fill-opacity="1" fill-rule="nonzero"/><path fill="#ffffff" d="M 83.199219 110.308594 C 85.101562 113.464844 89.304688 110.25 91.230469 104.164062 C 92.363281 100.589844 92.679688 95.292969 89.839844 94.710938 C 84.953125 94.695312 80.789062 106.308594 83.199219 110.308594 " fill-opacity="1" fill-rule="nonzero"/><path fill="#ffffff" d="M 97.375 183.898438 L 97.316406 183.996094 L 97.332031 184.007812 Z M 97.375 183.898438 " fill-opacity="1" fill-rule="nonzero"/><path fill="#ffffff" d="M 100.984375 198.625 L 101.09375 198.722656 L 100.996094 198.625 C 100.992188 198.625 100.988281 198.625 100.984375 198.625 " fill-opacity="1" fill-rule="nonzero"/><path fill="#ffffff" d="M 146.6875 246.8125 C 152.082031 248.929688 155.8125 246.023438 153.691406 241.355469 C 152.441406 238.601562 148.4375 234.820312 143.449219 235.042969 C 142.929688 235.121094 142.285156 235.21875 141.667969 235.53125 C 137.503906 237.640625 140.507812 244.390625 146.6875 246.8125 " fill-opacity="1" fill-rule="nonzero"/><path fill="#ffffff" d="M 145.886719 257.6875 C 149.984375 258.480469 151.667969 256.023438 149.417969 252.53125 C 147.964844 250.277344 143.929688 246.722656 139.285156 246.773438 C 138.976562 246.792969 138.039062 246.855469 137.316406 247.378906 C 134.042969 249.738281 139.652344 256.484375 145.886719 257.6875 " fill-opacity="1" fill-rule="nonzero"/><path fill="#ffffff" d="M 125.609375 131.046875 C 125.808594 127.425781 123.992188 122.386719 119.328125 122.523438 C 113.640625 123.121094 110.847656 132.296875 114.867188 137.175781 C 118.699219 141.824219 125.222656 138.097656 125.609375 131.046875 " fill-opacity="1" fill-rule="nonzero"/><path fill="#ffffff" d="M 110.390625 109.144531 C 104.773438 109.882812 102.160156 119.40625 105.234375 123.640625 C 108.265625 127.8125 113.9375 124.539062 115.03125 117.988281 C 115.632812 114.375 114.589844 109.238281 110.390625 109.144531 " fill-opacity="1" fill-rule="nonzero"/><path fill="#ffffff" d="M 61.589844 116.40625 C 62.226562 116.0625 63.351562 112.5625 63.964844 110.507812 C 64.207031 109.695312 66.328125 102.515625 66.011719 100.769531 C 65.984375 100.714844 65.929688 100.648438 65.878906 100.628906 C 65.847656 100.640625 65.804688 100.652344 65.777344 100.667969 C 64.328125 101.648438 60.492188 116.058594 61.589844 116.40625 " fill-opacity="1" fill-rule="nonzero"/><path fill="#ffffff" d="M 159.746094 228.351562 C 158.746094 225.527344 155.269531 221.484375 149.78125 221.910156 C 149.367188 221.984375 148.8125 222.085938 148.417969 222.226562 C 143.292969 224.050781 144.789062 231.460938 150.878906 234.421875 C 156.132812 236.976562 161.804688 234.164062 159.746094 228.351562 " fill-opacity="1" fill-rule="nonzero"/><path fill="#ffffff" d="M 137.585938 272.261719 C 138.347656 272.136719 136.640625 270.683594 134.792969 269.367188 C 132.691406 267.871094 127.988281 264.863281 125.214844 264.179688 C 124.882812 264.136719 124.59375 264.097656 124.523438 264.28125 C 124 265.59375 135.480469 272.605469 137.585938 272.261719 " fill-opacity="1" fill-rule="nonzero"/><path fill="#ffffff" d="M 146.503906 266.398438 C 149.386719 266.597656 149.777344 264.824219 147.433594 262.175781 C 145.898438 260.4375 141.84375 257.117188 137.507812 256.988281 C 136.929688 257.027344 136.382812 257.066406 135.925781 257.40625 C 133.277344 259.386719 141.089844 266.023438 146.503906 266.398438 " fill-opacity="1" fill-rule="nonzero"/><path fill="#ffffff" d="M 98.429688 109.988281 C 100.535156 113.089844 105.449219 110.714844 107.074219 104.472656 C 107.667969 102.1875 108.324219 96.183594 104.269531 95.894531 C 99.140625 96.375 95.847656 106.183594 98.429688 109.988281 " fill-opacity="1" fill-rule="nonzero"/><path fill="#ffffff" d="M 70.550781 99.15625 C 71.632812 96.5 73.484375 91.144531 72.765625 89.886719 C 72.730469 89.859375 72.683594 89.816406 72.644531 89.804688 C 70.992188 89.234375 65.75 102.359375 66.738281 104.585938 C 67.226562 105.675781 68.828125 103.390625 70.550781 99.15625 " fill-opacity="1" fill-rule="nonzero"/><path fill="#ffffff" d="M 130.859375 135.914062 C 123.925781 137.191406 123.289062 146.503906 127.136719 150.511719 C 131.261719 154.8125 138.554688 151.785156 138.367188 144.144531 C 138.246094 139.128906 134.878906 135.4375 130.859375 135.914062 " fill-opacity="1" fill-rule="nonzero"/><path fill="#ffffff" d="M 159.472656 186.296875 C 158.875 182.878906 155.855469 178.003906 149.980469 178.585938 C 143.027344 179.683594 142.914062 189.304688 148.296875 193.308594 C 153.453125 197.136719 160.765625 193.71875 159.472656 186.296875 " fill-opacity="1" fill-rule="nonzero"/><path fill="#ffffff" d="M 157.089844 220.238281 C 162.765625 223.796875 169.046875 220.117188 167.589844 214.089844 C 166.5625 209.855469 161.996094 206.683594 157.816406 207.300781 C 157.601562 207.347656 157.316406 207.394531 157.105469 207.449219 C 151.34375 208.984375 151.332031 216.636719 157.089844 220.238281 " fill-opacity="1" fill-rule="nonzero"/><path fill="#ffffff" d="M 89.316406 81.476562 C 85.691406 81.25 80.75 92.03125 82.125 95.191406 C 83.121094 97.480469 86.398438 94.929688 88.617188 90.136719 C 89.976562 87.203125 91.367188 82.257812 89.316406 81.476562 " fill-opacity="1" fill-rule="nonzero"/><path fill="#ffffff" d="M 149.265625 273.386719 C 150.675781 273.269531 150.199219 271.957031 148.105469 270.203125 C 145.253906 267.8125 140.664062 265.628906 138.277344 265.527344 C 137.84375 265.539062 137.429688 265.546875 137.160156 265.796875 C 135.367188 267.484375 145.328125 273.726562 149.265625 273.386719 " fill-opacity="1" fill-rule="nonzero"/><path fill="#ffffff" d="M 101.09375 82.726562 C 97.03125 82.992188 92.460938 91.882812 94.304688 95.9375 C 95.773438 99.171875 100.214844 96.167969 102.222656 90.578125 C 103.316406 87.539062 103.691406 83.09375 101.09375 82.726562 " fill-opacity="1" fill-rule="nonzero"/><path fill="#ffffff" d="M 74.355469 92.777344 C 74.886719 94.195312 77.25 91.675781 79.40625 87.375 C 80.84375 84.507812 82.539062 79.855469 81.605469 78.988281 C 81.597656 78.984375 81.59375 78.980469 81.585938 78.980469 C 79.410156 78.136719 73.257812 89.871094 74.355469 92.777344 " fill-opacity="1" fill-rule="nonzero"/><path fill="#ffffff" d="M 144.617188 149.046875 C 138.382812 150.023438 136.601562 159.125 141.769531 163.582031 C 146.835938 167.949219 153.707031 163.820312 153.078125 156.78125 C 152.765625 153.265625 149.933594 148.542969 144.617188 149.046875 " fill-opacity="1" fill-rule="nonzero"/><path fill="#ffffff" d="M 170.484375 250.414062 C 169.179688 247.265625 164.558594 244.703125 160.972656 245.136719 C 160.644531 245.195312 160.203125 245.277344 159.890625 245.386719 C 155.914062 246.804688 156.90625 252.164062 162.996094 254.746094 C 168.433594 257.050781 172.042969 254.175781 170.484375 250.414062 " fill-opacity="1" fill-rule="nonzero"/><path fill="#ffffff" d="M 166.109375 260.730469 C 164.753906 258.660156 160.726562 255.894531 156.691406 256.082031 C 155.964844 256.15625 155.371094 256.355469 154.921875 256.683594 C 152.074219 258.75 156.4375 263.792969 162.105469 264.980469 C 166.460938 265.890625 167.855469 263.402344 166.109375 260.730469 " fill-opacity="1" fill-rule="nonzero"/><path fill="#ffffff" d="M 130.4375 107.800781 C 125.738281 108.421875 122.34375 116.394531 126.074219 120.972656 C 129.519531 125.195312 135.527344 121.878906 136.121094 115.429688 C 136.429688 112.078125 134.625 107.566406 130.4375 107.800781 " fill-opacity="1" fill-rule="nonzero"/><path fill="#ffffff" d="M 125.890625 102.761719 C 126.625 98.566406 124.621094 94.96875 121.691406 95.210938 C 116.777344 96.035156 113.683594 104.222656 116.75 108.285156 C 119.679688 112.167969 124.9375 108.203125 125.890625 102.761719 " fill-opacity="1" fill-rule="nonzero"/><path fill="#ffffff" d="M 74.410156 83.933594 C 75.019531 82.804688 78.046875 77.109375 77.9375 75.691406 C 77.921875 75.664062 77.910156 75.625 77.886719 75.605469 C 76.9375 74.902344 70.566406 86.992188 71.070312 88.542969 C 71.269531 89.152344 72.546875 87.386719 74.410156 83.933594 " fill-opacity="1" fill-rule="nonzero"/><path fill="#ffffff" d="M 109.96875 95.160156 C 111.820312 98.386719 116.785156 95.929688 118.320312 89.832031 C 119.015625 87.0625 118.910156 82.921875 115.761719 82.863281 C 111.199219 83.472656 107.957031 91.664062 109.96875 95.160156 " fill-opacity="1" fill-rule="nonzero"/><path fill="#ffffff" d="M 141.785156 120.46875 C 136.289062 121.332031 134.085938 129.871094 138.3125 133.90625 C 142.417969 137.824219 148.785156 133.933594 148.640625 127.597656 C 148.570312 124.597656 146.648438 120.007812 141.785156 120.46875 " fill-opacity="1" fill-rule="nonzero"/><path fill="#ffffff" d="M 176.488281 237.835938 C 175.179688 234.460938 171.101562 232.160156 167.402344 232.707031 C 167.039062 232.777344 166.550781 232.878906 166.203125 233.007812 C 161.558594 234.671875 162.582031 240.710938 167.9375 243.257812 C 173.304688 245.816406 178.339844 242.625 176.488281 237.835938 " fill-opacity="1" fill-rule="nonzero"/><path fill="#ffffff" d="M 163.972656 269.464844 C 161.691406 267.109375 157.601562 265.316406 154.855469 265.464844 C 154.398438 265.515625 153.632812 265.59375 153.203125 266.046875 C 151.371094 267.972656 158.183594 272.800781 162.921875 272.933594 C 165.550781 273.007812 165.992188 271.546875 163.972656 269.464844 " fill-opacity="1" fill-rule="nonzero"/><path fill="#ffffff" d="M 100.808594 70.132812 C 97.792969 69.855469 92.183594 78.820312 93.304688 82.125 C 94.089844 84.441406 97.570312 82.554688 100.183594 77.378906 C 101.34375 75.078125 102.96875 70.605469 100.808594 70.132812 " fill-opacity="1" fill-rule="nonzero"/><path fill="#ffffff" d="M 153.621094 278.675781 C 154.289062 278.542969 153.285156 277.652344 150.933594 276.300781 C 150.355469 275.96875 145.183594 273.039062 141.914062 272.574219 C 141.570312 272.554688 141.246094 272.535156 141.136719 272.699219 C 140.394531 273.808594 151.476562 279.117188 153.621094 278.675781 " fill-opacity="1" fill-rule="nonzero"/><path fill="#ffffff" d="M 184.441406 224.34375 C 183.792969 221.707031 180.871094 218.035156 175.484375 218.742188 C 175.484375 218.746094 175.480469 218.746094 175.480469 218.746094 C 175.480469 218.746094 175.476562 218.746094 175.476562 218.746094 C 175.476562 218.746094 175.472656 218.746094 175.472656 218.746094 C 175.472656 218.746094 175.472656 218.746094 175.46875 218.746094 C 174.644531 218.9375 172.929688 219.332031 171.769531 220.902344 C 168.996094 224.652344 172.75 231.835938 179.996094 230.878906 C 179.996094 230.875 180 230.875 180 230.875 C 180 230.875 180.003906 230.875 180.003906 230.875 C 180.007812 230.875 180.007812 230.875 180.007812 230.871094 C 180.007812 230.871094 180.011719 230.871094 180.011719 230.871094 C 185.566406 229.59375 184.574219 224.878906 184.441406 224.34375 " fill-opacity="1" fill-rule="nonzero"/><path fill="#ffffff" d="M 176.46875 198.402344 C 175.941406 195.375 172.945312 190.832031 167.15625 191.539062 C 160.410156 193.117188 160.445312 201.371094 165.710938 204.828125 C 171.105469 208.371094 177.539062 204.527344 176.46875 198.402344 " fill-opacity="1" fill-rule="nonzero"/><path fill="#ffffff" d="M 160.277344 162.058594 C 154.046875 163.210938 152.734375 172.160156 158.207031 176.140625 C 163.453125 179.957031 170.050781 175.65625 169.066406 169.0625 C 168.492188 165.207031 165.214844 161.445312 160.277344 162.058594 " fill-opacity="1" fill-rule="nonzero"/><path fill="#ffffff" d="M 67.753906 94.402344 C 68.664062 92.21875 70.8125 87.007812 71.082031 85.710938 C 71.085938 85.679688 71.085938 85.632812 71.085938 85.601562 C 71.0625 85.601562 71.035156 85.601562 71.011719 85.601562 C 70.113281 86.710938 65.085938 98.609375 65.503906 99.34375 C 65.636719 99.15625 65.949219 98.722656 67.753906 94.402344 " fill-opacity="1" fill-rule="nonzero"/><path fill="#ffffff" d="M 140.519531 274.800781 C 134.585938 271.722656 132.894531 270.980469 132.015625 270.660156 C 132.015625 270.660156 132.011719 270.660156 132.011719 270.660156 C 132.011719 270.660156 132.011719 270.65625 132.011719 270.65625 C 132.007812 270.65625 132.007812 270.65625 132.007812 270.65625 C 131.921875 270.632812 131.808594 270.601562 131.722656 270.585938 C 131.71875 270.609375 131.710938 270.636719 131.707031 270.65625 C 132.9375 271.824219 143.308594 276.835938 144.535156 277.023438 C 144.488281 276.921875 144.449219 276.839844 140.519531 274.800781 " fill-opacity="1" fill-rule="nonzero"/><path fill="#ffffff" d="M 84.058594 80.609375 C 84.496094 82.152344 86.914062 80.632812 89.6875 75.984375 C 89.847656 75.714844 93.574219 69.425781 91.964844 68.429688 C 89.195312 67.996094 83.359375 78.136719 84.058594 80.609375 " fill-opacity="1" fill-rule="nonzero"/><path fill="#ffffff" d="M 165.058594 279.011719 C 165.058594 279.011719 165.0625 279.011719 165.0625 279.011719 C 165.0625 279.011719 165.066406 279.011719 165.066406 279.011719 C 165.066406 279.011719 165.070312 279.011719 165.070312 279.011719 C 165.164062 279.007812 165.289062 279.003906 165.382812 278.992188 C 166.710938 278.839844 166.351562 277.871094 164.464844 276.523438 C 161.796875 274.613281 157.789062 273.085938 155.53125 273.109375 C 155.128906 273.136719 154.710938 273.164062 154.449219 273.382812 C 153.011719 274.574219 160.324219 278.921875 165.058594 279.011719 " fill-opacity="1" fill-rule="nonzero"/><path fill="#ffffff" d="M 112.800781 70.683594 C 112.347656 70.730469 111.664062 70.804688 110.507812 71.742188 C 106.363281 75.105469 104.035156 83.09375 107.949219 83.378906 C 107.949219 83.378906 107.953125 83.378906 107.953125 83.378906 C 107.953125 83.378906 107.953125 83.378906 107.957031 83.378906 C 111.199219 83.046875 113.3125 78.246094 113.542969 77.699219 C 114.972656 74.3125 115.015625 70.683594 112.800781 70.683594 " fill-opacity="1" fill-rule="nonzero"/><path fill="#ffffff" d="M 86.785156 65.679688 C 85.757812 65.4375 78.011719 75.699219 79.050781 77.804688 C 79.050781 77.804688 79.050781 77.804688 79.050781 77.808594 C 79.050781 77.808594 79.050781 77.808594 79.054688 77.808594 C 79.949219 78.328125 83.078125 73.578125 83.429688 73.035156 C 84.550781 71.320312 87.347656 66.667969 86.886719 65.734375 C 86.855469 65.71875 86.820312 65.6875 86.785156 65.679688 " fill-opacity="1" fill-rule="nonzero"/><path fill="#ffffff" d="M 155.433594 133.003906 C 148.753906 134.574219 148.625 142.9375 152.578125 146.28125 C 156.6875 149.757812 163.566406 146.621094 163.109375 139.957031 C 162.800781 135.441406 159.355469 132.324219 155.433594 133.003906 " fill-opacity="1" fill-rule="nonzero"/><path fill="#ffffff" d="M 170.960938 145.308594 C 165.414062 146.75 163.8125 153.871094 168.148438 157.800781 C 173.144531 162.328125 179.601562 157.824219 179.089844 151.929688 C 178.8125 148.714844 175.832031 144.628906 170.960938 145.308594 " fill-opacity="1" fill-rule="nonzero"/><path fill="#ffffff" d="M 186.105469 181.308594 C 185.542969 177.101562 181.257812 173.855469 177.292969 174.632812 C 171.597656 176.136719 170.238281 183.5625 174.949219 187.445312 C 180.503906 192.027344 186.925781 187.402344 186.105469 181.308594 " fill-opacity="1" fill-rule="nonzero"/><path fill="#ffffff" d="M 193.519531 209.003906 C 192.832031 205.355469 188.625 202.617188 184.863281 203.363281 C 179.269531 204.824219 178.195312 211.4375 183.007812 214.773438 C 188.507812 218.589844 194.519531 214.3125 193.519531 209.003906 " fill-opacity="1" fill-rule="nonzero"/><path fill="#ffffff" d="M 95.386719 68.761719 C 95.664062 70.734375 98.863281 68.152344 101.289062 64.652344 C 103.03125 62.144531 104.800781 58.410156 103.601562 57.925781 C 101.046875 57.835938 94.984375 65.835938 95.386719 68.761719 " fill-opacity="1" fill-rule="nonzero"/><path fill="#ffffff" d="M 186.511719 257.957031 C 185.480469 255.417969 181.394531 253.382812 178.257812 253.847656 C 177.964844 253.90625 177.570312 253.988281 177.292969 254.089844 C 173.964844 255.304688 174.414062 259.425781 179.226562 261.519531 C 184.148438 263.667969 187.828125 261.1875 186.511719 257.957031 " fill-opacity="1" fill-rule="nonzero"/><path fill="#ffffff" d="M 148.167969 277.945312 C 148.082031 277.933594 147.960938 277.921875 147.875 277.921875 C 147.863281 277.941406 147.847656 277.972656 147.835938 277.996094 C 148.890625 279.03125 158.039062 282.230469 160.121094 282.546875 C 160.140625 282.53125 160.167969 282.503906 160.1875 282.488281 C 159.839844 282.265625 158.625 281.742188 156.574219 280.925781 C 155.929688 280.671875 150.21875 278.414062 148.167969 277.945312 " fill-opacity="1" fill-rule="nonzero"/><path fill="#ffffff" d="M 105.570312 69.570312 C 106.261719 71.714844 109.628906 69.476562 112.011719 65.300781 C 113.304688 63.027344 114.671875 59.300781 112.820312 58.984375 C 109.804688 59.199219 104.65625 66.71875 105.570312 69.570312 " fill-opacity="1" fill-rule="nonzero"/><path fill="#ffffff" d="M 169.664062 283.363281 C 170.171875 283.070312 167.996094 282.023438 167.316406 281.710938 C 164.699219 280.5 160.730469 279.144531 158.878906 279.066406 C 158.585938 279.070312 158.28125 279.074219 158.1875 279.226562 C 157.53125 280.308594 168.253906 284.175781 169.664062 283.363281 " fill-opacity="1" fill-rule="nonzero"/><path fill="#ffffff" d="M 141.363281 93.359375 C 136.726562 94.390625 134.4375 101.5 137.59375 105.058594 C 140.664062 108.523438 146.035156 105.308594 146.4375 99.773438 C 146.714844 95.996094 144.292969 92.9375 141.363281 93.359375 " fill-opacity="1" fill-rule="nonzero"/><path fill="#ffffff" d="M 132.804688 81.648438 C 128.667969 82.476562 125.882812 89.242188 128.222656 92.792969 C 130.527344 96.292969 135.550781 93.398438 136.488281 88.03125 C 137.125 84.398438 135.367188 81.355469 132.804688 81.648438 " fill-opacity="1" fill-rule="nonzero"/><path fill="#ffffff" d="M 177.871094 270.902344 C 181.933594 271.746094 183.546875 269.707031 182.015625 267.445312 C 180.546875 265.277344 176.65625 263.609375 173.851562 263.945312 C 173.320312 264.039062 172.816406 264.128906 172.300781 264.484375 C 169.832031 266.179688 173.0625 269.898438 177.871094 270.902344 " fill-opacity="1" fill-rule="nonzero"/><path fill="#ffffff" d="M 88.96875 66.675781 C 89.148438 67.753906 91.304688 65.984375 93.871094 62.652344 C 93.917969 62.59375 98.230469 56.976562 97.417969 56.074219 C 95.710938 55.605469 88.605469 64.523438 88.96875 66.675781 " fill-opacity="1" fill-rule="nonzero"/><path fill="#ffffff" d="M 178.746094 277.996094 C 181.039062 277.964844 181.460938 276.796875 179.746094 275.214844 C 178.390625 273.960938 175.175781 272.164062 171.878906 272.355469 C 171.484375 272.394531 170.765625 272.515625 170.390625 272.886719 C 168.757812 274.519531 174.535156 278.050781 178.746094 277.996094 " fill-opacity="1" fill-rule="nonzero"/><path fill="#ffffff" d="M 127.074219 70.222656 C 123.488281 70.578125 120.015625 77.765625 121.921875 80.898438 C 123.484375 83.476562 127.8125 81.296875 129.214844 76.257812 C 129.898438 73.796875 129.890625 70.164062 127.074219 70.222656 " fill-opacity="1" fill-rule="nonzero"/><path fill="#ffffff" d="M 152.566406 105.25 C 147.734375 106.117188 145.769531 113.496094 149.429688 117.03125 C 152.757812 120.25 158.84375 117.421875 158.675781 111.398438 C 158.601562 108.636719 156.910156 104.722656 152.566406 105.25 " fill-opacity="1" fill-rule="nonzero"/><path fill="#ffffff" d="M 192.742188 246.328125 C 192.058594 244.394531 189.289062 241.558594 184.769531 242.171875 C 184.449219 242.230469 183.964844 242.34375 183.480469 242.546875 C 179.683594 244.144531 180.421875 248.925781 184.777344 250.929688 C 189.382812 253.050781 194.144531 250.300781 192.742188 246.328125 " fill-opacity="1" fill-rule="nonzero"/><path fill="#ffffff" d="M 80.980469 69.398438 C 82.8125 66.738281 85.058594 63.351562 85.359375 62.351562 C 85.347656 62.320312 85.332031 62.277344 85.320312 62.246094 C 84.242188 62.613281 77.789062 72.320312 78.046875 73.183594 C 78.167969 73.140625 78.488281 73.027344 80.980469 69.398438 " fill-opacity="1" fill-rule="nonzero"/><path fill="#ffffff" d="M 90.046875 59.738281 C 90.089844 59.6875 94.5 54.375 94.507812 53.375 C 94.492188 53.359375 94.476562 53.339844 94.460938 53.324219 C 93.210938 53.265625 85.679688 62.585938 86.320312 63.394531 C 86.871094 63.4375 88.890625 61.125 90.046875 59.738281 " fill-opacity="1" fill-rule="nonzero"/><path fill="#ffffff" d="M 164.980469 283.375 C 164.691406 283.355469 164.691406 283.355469 164.613281 283.429688 C 165.292969 284.101562 174.953125 286.484375 175.84375 286.203125 C 175.726562 286.140625 175.527344 286.027344 172.796875 285.269531 C 168.871094 284.179688 166.238281 283.542969 164.980469 283.375 " fill-opacity="1" fill-rule="nonzero"/><path fill="#ffffff" d="M 187.878906 157.527344 C 182.585938 158.757812 181.222656 165.890625 185.597656 169.453125 C 190.296875 173.28125 196.738281 169.488281 195.882812 163.394531 C 195.472656 160.460938 192.71875 156.703125 187.878906 157.527344 " fill-opacity="1" fill-rule="nonzero"/><path fill="#ffffff" d="M 196.664062 239.042969 C 196.664062 239.042969 196.667969 239.042969 196.667969 239.042969 C 196.667969 239.042969 196.671875 239.042969 196.671875 239.042969 C 196.671875 239.042969 196.675781 239.042969 196.675781 239.042969 C 196.679688 239.042969 196.679688 239.042969 196.679688 239.042969 C 196.683594 239.042969 196.683594 239.039062 196.683594 239.039062 C 196.6875 239.039062 196.6875 239.039062 196.6875 239.039062 C 196.691406 239.039062 196.691406 239.039062 196.691406 239.039062 C 201.636719 237.804688 200.859375 233.828125 200.753906 233.375 C 200.238281 231.175781 197.746094 228.175781 192.976562 228.925781 C 191.101562 229.316406 190.09375 230.308594 189.660156 230.867188 C 186.929688 234.386719 190.722656 239.953125 196.660156 239.046875 C 196.660156 239.046875 196.664062 239.046875 196.664062 239.042969 " fill-opacity="1" fill-rule="nonzero"/><path fill="#ffffff" d="M 124.355469 59.058594 C 121.449219 59.261719 117.453125 65.753906 118.417969 68.710938 C 119.222656 71.171875 122.929688 69.425781 124.945312 64.714844 C 125.867188 62.5625 126.519531 59.125 124.355469 59.058594 " fill-opacity="1" fill-rule="nonzero"/><path fill="#ffffff" d="M 100.558594 55.898438 C 100.519531 57.136719 102.929688 55.460938 105.714844 52.3125 C 107.148438 50.695312 109.878906 47.179688 109.179688 46.65625 C 107.390625 46.476562 100.621094 53.730469 100.558594 55.898438 " fill-opacity="1" fill-rule="nonzero"/><path fill="#ffffff" d="M 181.117188 283.019531 C 181.953125 282.765625 181.449219 282.015625 179.839844 281.101562 C 178.484375 280.335938 175.191406 278.898438 172.429688 278.964844 C 172.429688 278.964844 172.425781 278.964844 172.425781 278.964844 C 172.421875 278.964844 172.421875 278.964844 172.421875 278.964844 C 172.421875 278.964844 172.417969 278.964844 172.417969 278.964844 C 172.417969 278.964844 172.414062 278.964844 172.414062 278.964844 C 172.410156 278.964844 172.410156 278.964844 172.410156 278.964844 C 172.082031 279 171.53125 279.054688 171.347656 279.332031 C 170.421875 280.730469 178.546875 283.796875 181.117188 283.019531 " fill-opacity="1" fill-rule="nonzero"/><path fill="#ffffff" d="M 166.058594 117.058594 C 166.058594 117.058594 166.058594 117.058594 166.054688 117.058594 C 166.054688 117.058594 166.050781 117.058594 166.050781 117.058594 C 166.050781 117.058594 166.046875 117.058594 166.046875 117.058594 C 166.046875 117.058594 166.042969 117.058594 166.042969 117.0625 C 166.042969 117.0625 166.039062 117.0625 166.039062 117.0625 C 166.039062 117.0625 166.035156 117.0625 166.035156 117.0625 C 166.035156 117.0625 166.03125 117.0625 166.03125 117.0625 C 166.03125 117.0625 166.027344 117.0625 166.027344 117.0625 C 160.109375 118.65625 160.15625 126.175781 163.753906 128.925781 C 167.832031 132.046875 173.414062 128.417969 172.9375 122.945312 C 172.707031 120.3125 170.636719 116.382812 166.058594 117.058594 " fill-opacity="1" fill-rule="nonzero"/><path fill="#ffffff" d="M 158.476562 282.261719 L 158.851562 282.371094 C 158.574219 282.285156 158.28125 282.203125 158.007812 282.117188 L 158.476562 282.261719 " fill-opacity="1" fill-rule="nonzero"/><path fill="#ffffff" d="M 203.179688 192.3125 C 202.480469 188.585938 198.78125 186.121094 195.101562 186.933594 C 189.140625 188.605469 188.882812 195.71875 193.359375 198.613281 C 198.15625 201.71875 204.214844 197.832031 203.179688 192.3125 " fill-opacity="1" fill-rule="nonzero"/><path fill="#ffffff" d="M 107.925781 57.292969 C 108.226562 58.773438 111.066406 56.835938 113.660156 53.390625 C 114.890625 51.753906 117.03125 48.265625 115.789062 47.929688 C 113.832031 47.761719 107.402344 54.738281 107.925781 57.292969 " fill-opacity="1" fill-rule="nonzero"/><path fill="#ffffff" d="M 210.058594 218.917969 C 209.730469 216.101562 206.539062 213.445312 202.480469 214.144531 C 197.796875 215.441406 196.460938 220.59375 200.058594 223.484375 C 204.613281 227.144531 210.597656 223.582031 210.058594 218.917969 " fill-opacity="1" fill-rule="nonzero"/><path fill="#ffffff" d="M 184.84375 286.4375 C 185.238281 286.21875 183.476562 285.585938 182.925781 285.394531 C 180.679688 284.621094 177.113281 283.765625 175.582031 283.785156 C 175.355469 283.796875 174.980469 283.820312 174.980469 283.996094 C 174.976562 284.882812 183.734375 287.050781 184.84375 286.4375 " fill-opacity="1" fill-rule="nonzero"/><path fill="#ffffff" d="M 181.507812 128.675781 C 181.503906 128.675781 181.503906 128.675781 181.503906 128.675781 C 181.5 128.675781 181.5 128.675781 181.5 128.675781 C 181.496094 128.675781 181.496094 128.675781 181.496094 128.675781 C 181.492188 128.675781 181.492188 128.675781 181.492188 128.675781 C 181.492188 128.679688 181.488281 128.679688 181.488281 128.679688 C 181.488281 128.679688 181.484375 128.679688 181.484375 128.679688 C 181.484375 128.679688 181.480469 128.679688 181.480469 128.679688 C 181.480469 128.679688 181.476562 128.679688 181.476562 128.679688 C 176.316406 130.179688 175.242188 137.25 179.707031 140.320312 C 184.386719 143.535156 189.503906 139.101562 188.769531 134.082031 C 188.375 131.394531 185.632812 128.015625 181.507812 128.675781 " fill-opacity="1" fill-rule="nonzero"/><path fill="#ffffff" d="M 118.140625 57.332031 C 118.644531 59.042969 121.644531 57.039062 123.777344 53.578125 C 124.765625 51.972656 126.28125 48.589844 124.667969 48.390625 C 122.023438 48.71875 117.445312 54.980469 118.140625 57.332031 " fill-opacity="1" fill-rule="nonzero"/><path fill="#ffffff" d="M 96.652344 53.589844 C 96.652344 53.589844 96.652344 53.589844 96.65625 53.59375 C 97.289062 53.859375 100.214844 50.914062 101.097656 50.003906 C 101.273438 49.820312 105.464844 45.492188 105.257812 44.746094 C 105.238281 44.734375 105.210938 44.714844 105.1875 44.710938 C 104.324219 44.566406 96.054688 52.105469 96.652344 53.589844 " fill-opacity="1" fill-rule="nonzero"/><path fill="#ffffff" d="M 201.265625 264.113281 C 200.585938 262.648438 198.085938 260.796875 194.664062 261.265625 C 194.183594 261.355469 193.699219 261.519531 193.335938 261.710938 C 190.78125 263.082031 191.898438 266.167969 195.394531 267.402344 C 199.117188 268.714844 202.519531 266.808594 201.265625 264.113281 " fill-opacity="1" fill-rule="nonzero"/><path fill="#ffffff" d="M 148.636719 89.316406 C 151.347656 92.25 155.964844 89.222656 156.007812 84.476562 C 156.03125 82.191406 154.6875 79.128906 151.628906 79.480469 C 147.871094 80.179688 145.972656 86.429688 148.636719 89.316406 " fill-opacity="1" fill-rule="nonzero"/><path fill="#ffffff" d="M 192.929688 275.597656 C 196.117188 276.171875 198.039062 274.804688 196.730469 272.882812 C 195.59375 271.207031 192.507812 270.046875 190.121094 270.398438 C 189.734375 270.46875 189.089844 270.597656 188.601562 270.980469 C 186.882812 272.351562 189.308594 274.9375 192.929688 275.597656 " fill-opacity="1" fill-rule="nonzero"/><path fill="#ffffff" d="M 143.230469 68.738281 C 139.453125 69.570312 137.664062 75.863281 139.761719 78.261719 C 141.703125 80.484375 145.773438 78.269531 146.371094 73.726562 C 146.722656 71.0625 145.621094 68.394531 143.230469 68.738281 " fill-opacity="1" fill-rule="nonzero"/><path fill="#ffffff" d="M 207.789062 253.496094 C 207.257812 251.925781 205.097656 249.8125 201.320312 250.429688 C 201.140625 250.464844 200.746094 250.570312 200.746094 250.574219 C 196.898438 251.742188 197.335938 255.640625 200.523438 257.296875 C 204.40625 259.320312 208.957031 256.9375 207.789062 253.496094 " fill-opacity="1" fill-rule="nonzero"/><path fill="#ffffff" d="M 137.722656 58.230469 C 134.824219 58.601562 131.972656 64.511719 133.484375 67.011719 C 134.746094 69.101562 138.292969 67.300781 139.460938 63.179688 C 140.046875 61.121094 140.066406 58.105469 137.722656 58.230469 " fill-opacity="1" fill-rule="nonzero"/><path fill="#ffffff" d="M 162.683594 90.484375 C 157.859375 91.746094 157.601562 98.140625 160.382812 100.542969 C 163.265625 103.027344 168.214844 100.539062 167.984375 95.605469 C 167.824219 92.242188 165.449219 89.945312 162.683594 90.484375 " fill-opacity="1" fill-rule="nonzero"/><path fill="#ffffff" d="M 193.460938 281.667969 C 195.277344 281.554688 195.636719 280.710938 194.335938 279.617188 C 192.972656 278.472656 190.222656 277.453125 187.972656 277.726562 C 187.628906 277.78125 187.050781 277.875 186.726562 278.179688 C 185.386719 279.4375 190.109375 281.882812 193.460938 281.667969 " fill-opacity="1" fill-rule="nonzero"/><path fill="#ffffff" d="M 195.339844 285.679688 C 195.988281 285.484375 195.644531 285.015625 194.433594 284.453125 C 193.148438 283.859375 190.457031 283.019531 188.328125 283.15625 C 188.003906 283.191406 187.585938 283.269531 187.453125 283.46875 C 186.820312 284.433594 193.382812 286.273438 195.339844 285.679688 " fill-opacity="1" fill-rule="nonzero"/><path fill="#ffffff" d="M 120.875 46.230469 C 121.105469 47.28125 123.46875 45.714844 125.738281 43.011719 C 127.519531 40.882812 128.832031 38.554688 127.941406 38.476562 C 125.84375 38.664062 120.496094 44.535156 120.875 46.230469 " fill-opacity="1" fill-rule="nonzero"/><g clip-path="url(#bcbb22a49d)"><path fill="#ffffff" d="M 181.542969 286.871094 C 181.296875 286.867188 181.296875 286.867188 181.238281 286.917969 C 181.878906 287.324219 190.175781 288.429688 190.785156 288.1875 C 190.566406 288.132812 190.285156 288.089844 188.074219 287.753906 C 184.589844 287.222656 182.671875 286.929688 181.542969 286.871094 " fill-opacity="1" fill-rule="nonzero"/></g><path fill="#ffffff" d="M 135.632812 52.660156 C 136.648438 50.402344 136.746094 47.964844 135.269531 48.078125 C 132.652344 48.558594 129.386719 54.023438 130.414062 56.199219 C 131.25 57.964844 134.125 56.011719 135.632812 52.660156 " fill-opacity="1" fill-rule="nonzero"/><path fill="#ffffff" d="M 108.570312 43.914062 C 108.4375 44.632812 110.378906 43.375 113.082031 40.988281 C 113.128906 40.949219 117.589844 36.96875 117.269531 36.441406 C 116.070312 36.222656 108.835938 42.4375 108.570312 43.914062 " fill-opacity="1" fill-rule="nonzero"/><path fill="#ffffff" d="M 205.664062 169.574219 C 200.039062 171.269531 200.265625 177.773438 203.589844 180.441406 C 207.46875 183.5625 213.871094 180.699219 213.046875 174.859375 C 212.507812 171.078125 209.199219 168.707031 205.664062 169.574219 " fill-opacity="1" fill-rule="nonzero"/><path fill="#ffffff" d="M 121.523438 37.789062 C 119.792969 37.757812 113.214844 44.007812 113.339844 45.566406 C 113.402344 46.378906 115.339844 45.355469 118.359375 42.289062 C 118.523438 42.125 122.367188 38.207031 121.523438 37.789062 " fill-opacity="1" fill-rule="nonzero"/><path fill="#ffffff" d="M 212.859375 198.230469 C 207.800781 199.515625 207.203125 205.492188 210.78125 208.023438 C 214.78125 210.855469 220.566406 207.484375 219.882812 202.71875 C 219.566406 200.503906 217.378906 197.324219 212.859375 198.230469 " fill-opacity="1" fill-rule="nonzero"/><path fill="#ffffff" d="M 94.640625 50.09375 C 94.65625 50.070312 94.652344 50.03125 94.65625 50.003906 C 93.84375 50.367188 87.296875 58.109375 87.28125 58.722656 C 87.46875 58.609375 87.957031 58.09375 90.097656 55.59375 C 93.609375 51.5 94.363281 50.558594 94.640625 50.09375 " fill-opacity="1" fill-rule="nonzero"/><path fill="#ffffff" d="M 198.363281 140.367188 C 192.695312 142.089844 193.164062 148.851562 196.816406 151.277344 C 201.042969 154.089844 206.308594 150.511719 205.484375 145.390625 C 204.917969 141.863281 201.65625 139.5625 198.363281 140.367188 " fill-opacity="1" fill-rule="nonzero"/><path fill="#ffffff" d="M 176.074219 101.4375 C 171.339844 102.792969 170.9375 109.0625 174.390625 111.570312 C 178.003906 114.191406 182.734375 110.847656 182.058594 106.148438 C 181.746094 103.996094 179.847656 100.8125 176.074219 101.4375 " fill-opacity="1" fill-rule="nonzero"/><path fill="#ffffff" d="M 216.027344 241.324219 C 215.59375 239.183594 213.21875 237.257812 209.671875 237.90625 C 205.308594 238.921875 204.84375 243.253906 207.835938 245.316406 C 211.457031 247.8125 216.816406 245.203125 216.027344 241.324219 " fill-opacity="1" fill-rule="nonzero"/><path fill="#ffffff" d="M 99.402344 47.09375 C 99.445312 47.050781 103.765625 42.894531 104.050781 42.164062 C 104.050781 42.160156 104.050781 42.160156 104.050781 42.160156 C 104.050781 42.160156 104.050781 42.160156 104.039062 42.121094 C 103.109375 42.085938 95.75 49.261719 95.917969 50.035156 C 96.25 50.066406 98.242188 48.207031 99.402344 47.09375 " fill-opacity="1" fill-rule="nonzero"/><path fill="#ffffff" d="M 190.1875 122.269531 C 194.253906 124.933594 198.484375 121.105469 197.71875 116.863281 C 197.320312 114.652344 195.042969 111.703125 191.410156 112.390625 C 187.46875 113.394531 186.058594 119.566406 190.1875 122.269531 " fill-opacity="1" fill-rule="nonzero"/><path fill="#ffffff" d="M 225.460938 227.40625 C 225.167969 225.179688 222.75 223.195312 219.363281 223.871094 C 215.703125 224.792969 213.832031 229.21875 217.117188 231.675781 C 220.894531 234.503906 225.964844 231.21875 225.460938 227.40625 " fill-opacity="1" fill-rule="nonzero"/><g clip-path="url(#27c9e51a5b)"><path fill="#ffffff" d="M 191.398438 286.746094 C 191.039062 286.777344 190.9375 286.8125 190.90625 286.902344 C 191.242188 287.570312 197.9375 288.296875 198.792969 287.972656 C 198.796875 287.953125 198.800781 287.929688 198.804688 287.914062 C 198.734375 287.863281 198.550781 287.726562 196.914062 287.402344 C 196.304688 287.28125 193.175781 286.683594 191.398438 286.746094 " fill-opacity="1" fill-rule="nonzero"/></g><path fill="#ffffff" d="M 130.382812 45.574219 C 130.613281 46.933594 132.898438 45.722656 134.914062 42.621094 C 136.195312 40.648438 136.917969 38.542969 135.847656 38.582031 C 133.90625 38.875 130.074219 43.777344 130.382812 45.574219 " fill-opacity="1" fill-rule="nonzero"/><path fill="#ffffff" d="M 110.425781 38.878906 C 112.089844 37.535156 114.902344 35.203125 115.027344 34.679688 C 114.515625 34.222656 106.867188 40.398438 106.761719 41.359375 C 106.828125 41.425781 107.027344 41.625 110.425781 38.878906 " fill-opacity="1" fill-rule="nonzero"/><path fill="#ffffff" d="M 158.808594 74.191406 C 160.875 76.179688 164.507812 74.207031 164.402344 70.277344 C 164.359375 68.742188 163.546875 65.949219 160.777344 66.34375 C 157.601562 67.015625 156.734375 72.199219 158.808594 74.191406 " fill-opacity="1" fill-rule="nonzero"/><path fill="#ffffff" d="M 209.636719 267.414062 C 209.433594 267.464844 209.15625 267.527344 208.960938 267.601562 C 206.476562 268.492188 207.027344 270.78125 209.238281 271.78125 C 211.769531 272.921875 215.363281 271.726562 214.542969 269.460938 C 214.148438 268.378906 212.519531 266.941406 209.636719 267.414062 " fill-opacity="1" fill-rule="nonzero"/><path fill="#ffffff" d="M 155.125 60.46875 C 155.351562 58.292969 154.453125 56.234375 152.5625 56.546875 C 149.640625 57.257812 148.398438 62.117188 150.058594 64.015625 C 151.617188 65.796875 154.753906 64.070312 155.125 60.46875 " fill-opacity="1" fill-rule="nonzero"/><path fill="#ffffff" d="M 206.347656 279.074219 C 208.710938 279.507812 210.804688 278.628906 209.792969 277.09375 C 208.96875 275.84375 206.820312 275.128906 204.898438 275.464844 C 204.589844 275.53125 204.070312 275.640625 203.671875 275.925781 C 202.34375 276.867188 203.820312 278.605469 206.347656 279.074219 " fill-opacity="1" fill-rule="nonzero"/><path fill="#ffffff" d="M 221.300781 259.753906 C 221.003906 258.539062 219.460938 256.941406 216.425781 257.511719 C 212.828125 258.464844 213.011719 261.433594 215.160156 262.679688 C 217.996094 264.324219 221.953125 262.4375 221.300781 259.753906 " fill-opacity="1" fill-rule="nonzero"/><path fill="#ffffff" d="M 216.125 151.917969 C 211.199219 153.289062 211.433594 159.367188 214.515625 161.660156 C 218.007812 164.253906 223.605469 161.332031 222.621094 156.21875 C 222.253906 154.308594 220.425781 150.957031 216.125 151.917969 " fill-opacity="1" fill-rule="nonzero"/><path fill="#ffffff" d="M 133.984375 29.515625 C 132.496094 29.597656 126.71875 34.503906 126.710938 35.691406 C 126.707031 36.289062 128.269531 35.503906 130.894531 33.15625 C 130.933594 33.121094 134.667969 29.765625 133.984375 29.515625 " fill-opacity="1" fill-rule="nonzero"/><path fill="#ffffff" d="M 121.757812 34.785156 C 121.710938 35.285156 123.378906 34.3125 125.914062 32.363281 C 126.316406 32.050781 129.871094 29.308594 129.917969 28.757812 C 129.90625 28.746094 129.890625 28.734375 129.878906 28.722656 C 128.757812 28.652344 121.851562 33.808594 121.757812 34.785156 " fill-opacity="1" fill-rule="nonzero"/><path fill="#ffffff" d="M 221.699219 190.621094 C 225.058594 193.082031 230.636719 190.363281 229.941406 185.464844 C 229.671875 183.570312 227.996094 180.238281 223.585938 181.226562 C 218.226562 182.976562 219.039062 188.671875 221.699219 190.621094 " fill-opacity="1" fill-rule="nonzero"/><path fill="#ffffff" d="M 170.242188 84.402344 C 172.957031 86.632812 176.660156 83.96875 176.160156 80.144531 C 175.933594 78.417969 174.519531 75.855469 171.691406 76.324219 C 168.488281 77.066406 167.570312 82.203125 170.242188 84.402344 " fill-opacity="1" fill-rule="nonzero"/><path fill="#ffffff" d="M 235.59375 211.847656 C 235.25 209.398438 232.550781 207.796875 229.929688 208.496094 C 226.039062 209.761719 224.789062 214.207031 227.695312 216.425781 C 231.25 219.136719 236.117188 215.625 235.59375 211.847656 " fill-opacity="1" fill-rule="nonzero"/><path fill="#ffffff" d="M 206.824219 284.070312 C 207.953125 283.875 208.105469 283.289062 207.199219 282.640625 C 206.449219 282.109375 204.523438 281.351562 202.527344 281.597656 C 201.875 281.699219 201.601562 281.898438 201.484375 282.046875 C 200.703125 283.054688 204.445312 284.472656 206.824219 284.070312 " fill-opacity="1" fill-rule="nonzero"/><path fill="#ffffff" d="M 144.140625 53.863281 C 145.167969 55.628906 147.824219 53.882812 148.652344 50.902344 C 149.207031 48.917969 148.777344 46.847656 147.273438 47.050781 C 144.996094 47.574219 143.003906 51.90625 144.140625 53.863281 " fill-opacity="1" fill-rule="nonzero"/><path fill="#ffffff" d="M 224.972656 245.824219 C 221.972656 246.71875 220.800781 249.675781 222.773438 251.371094 C 225.546875 253.765625 229.980469 251.414062 229.777344 248.46875 C 229.648438 246.578125 227.265625 245.269531 224.972656 245.824219 " fill-opacity="1" fill-rule="nonzero"/><path fill="#ffffff" d="M 187.15625 95.191406 C 187.160156 95.191406 187.160156 95.191406 187.160156 95.191406 C 187.164062 95.191406 187.164062 95.191406 187.164062 95.1875 C 187.164062 95.191406 187.164062 95.1875 187.164062 95.1875 C 187.164062 95.1875 187.164062 95.1875 187.167969 95.1875 C 187.167969 95.1875 187.167969 95.1875 187.171875 95.1875 C 189.722656 94.359375 190.296875 91.785156 190.058594 90.261719 C 189.667969 87.738281 187.199219 85.863281 184.976562 86.398438 C 184.527344 86.542969 183.59375 86.839844 182.816406 88.050781 C 180.65625 91.421875 183.375 95.894531 187.15625 95.191406 " fill-opacity="1" fill-rule="nonzero"/><path fill="#ffffff" d="M 206.890625 132.328125 C 210.8125 135.285156 215.171875 131.695312 214.398438 127.5 C 213.9375 124.996094 211.453125 122.699219 208.25 123.355469 C 204.371094 124.636719 203.585938 129.835938 206.890625 132.328125 " fill-opacity="1" fill-rule="nonzero"/><path fill="#ffffff" d="M 119.128906 33.167969 C 119.480469 33.28125 121.9375 31.640625 122.972656 30.933594 C 123.019531 30.902344 127.316406 27.953125 127.433594 27.496094 C 126.601562 27.292969 119.074219 32.433594 119.128906 33.167969 " fill-opacity="1" fill-rule="nonzero"/><path fill="#ffffff" d="M 145.070312 38.023438 C 143.355469 38.402344 140.726562 42.378906 141.398438 44.15625 C 141.996094 45.730469 144.351562 43.695312 145.378906 41.226562 C 146.042969 39.632812 146.050781 37.921875 145.070312 38.023438 " fill-opacity="1" fill-rule="nonzero"/><path fill="#ffffff" d="M 139.496094 29.78125 C 138.304688 29.8125 133.535156 34.304688 133.5625 35.757812 C 133.582031 36.6875 135.714844 35.121094 137.46875 33.199219 C 138.507812 32.0625 140.167969 29.894531 139.496094 29.78125 " fill-opacity="1" fill-rule="nonzero"/><path fill="#ffffff" d="M 207.203125 286.335938 C 206.035156 285.957031 203.859375 285.636719 202.703125 285.777344 C 202.488281 285.808594 202.132812 285.867188 202.082031 286.039062 C 201.832031 286.824219 207.019531 287.425781 207.972656 286.992188 C 208.351562 286.816406 207.824219 286.539062 207.203125 286.335938 " fill-opacity="1" fill-rule="nonzero"/><path fill="#ffffff" d="M 105.386719 39.113281 C 105.394531 39.097656 105.410156 39.070312 105.417969 39.054688 C 104.921875 39.273438 98.792969 44.886719 98.476562 45.574219 C 98.589844 45.492188 98.589844 45.492188 101.121094 43.136719 C 104.355469 40.125 105.125 39.410156 105.386719 39.113281 " fill-opacity="1" fill-rule="nonzero"/><path fill="#ffffff" d="M 110.464844 36.042969 C 114.449219 33.003906 114.746094 32.652344 114.96875 32.398438 C 114.542969 32.167969 107.695312 37.40625 107.640625 38.003906 C 107.707031 38.007812 107.867188 38.023438 110.464844 36.042969 " fill-opacity="1" fill-rule="nonzero"/><path fill="#ffffff" d="M 135.585938 26.25 C 135.753906 26.457031 136.808594 25.882812 139.339844 24.1875 C 139.875 23.828125 142.554688 22.023438 142.679688 21.683594 C 142.671875 21.675781 142.664062 21.671875 142.65625 21.664062 C 142.152344 21.597656 135.6875 25.386719 135.585938 26.25 " fill-opacity="1" fill-rule="nonzero"/><path fill="#ffffff" d="M 239.308594 235.46875 C 239.3125 235.425781 239.113281 231.582031 234.855469 232.726562 C 229.957031 234.222656 232.078125 238.144531 232.542969 238.617188 C 234.125 240.238281 239.089844 239.375 239.308594 235.46875 " fill-opacity="1" fill-rule="nonzero"/><path fill="#ffffff" d="M 145.890625 29.730469 C 144.585938 29.988281 141.640625 33.65625 141.800781 34.824219 C 141.921875 35.707031 143.597656 34.746094 145.007812 32.675781 C 145.347656 32.171875 146.992188 29.671875 145.890625 29.730469 " fill-opacity="1" fill-rule="nonzero"/><g clip-path="url(#1b5014ba23)"><path fill="#ffffff" d="M 209.597656 288.035156 C 207.417969 287.945312 206.4375 287.929688 205.71875 287.992188 C 205.351562 288.027344 205.335938 288.050781 205.3125 288.09375 C 205.800781 288.375 210.371094 288.300781 211.035156 288.136719 C 210.992188 288.109375 210.976562 288.097656 209.597656 288.035156 " fill-opacity="1" fill-rule="nonzero"/></g><path fill="#ffffff" d="M 238.984375 199.613281 C 239.640625 200.105469 241.4375 201.066406 243.996094 199.378906 C 244.835938 198.828125 246.191406 197.535156 245.84375 195.097656 C 245.386719 191.902344 242.816406 191.464844 240.753906 192.066406 C 236.589844 193.527344 237.019531 198.140625 238.984375 199.613281 " fill-opacity="1" fill-rule="nonzero"/><path fill="#ffffff" d="M 232.542969 171.84375 C 234.578125 173.535156 240.269531 172.570312 239.699219 167.097656 C 239.695312 167.046875 238.964844 162.136719 234.1875 163.355469 C 229.082031 164.890625 230.832031 170.425781 232.542969 171.84375 " fill-opacity="1" fill-rule="nonzero"/><path fill="#ffffff" d="M 225.003906 142.503906 C 225.398438 142.773438 227.476562 144.027344 229.847656 142.382812 C 230.882812 141.667969 232.011719 140.324219 231.511719 137.996094 C 230.859375 134.976562 228.699219 133.609375 225.871094 134.421875 C 221.722656 135.910156 222.65625 140.902344 225.003906 142.503906 " fill-opacity="1" fill-rule="nonzero"/><path fill="#ffffff" d="M 199.726562 104.390625 C 202.089844 105.769531 206.324219 104.492188 205.410156 100.25 C 204.9375 98.046875 203.074219 96.121094 200.421875 96.691406 C 196.253906 97.863281 197.339844 103 199.726562 104.390625 " fill-opacity="1" fill-rule="nonzero"/><path fill="#ffffff" d="M 126.3125 26.050781 C 126.3125 26.039062 126.296875 26.03125 126.292969 26.019531 C 125.609375 26.039062 119.71875 29.632812 118.902344 30.699219 C 119.257812 30.652344 120.101562 30.175781 122.246094 28.820312 C 125.292969 26.894531 126.203125 26.273438 126.3125 26.050781 " fill-opacity="1" fill-rule="nonzero"/><path fill="#ffffff" d="M 217.5625 279.246094 C 217.332031 279.300781 216.949219 279.390625 216.671875 279.582031 C 215.984375 280.066406 216.21875 281.074219 217.960938 281.472656 C 219.445312 281.8125 221.480469 281.265625 220.792969 280.148438 C 220.371094 279.460938 219.207031 278.917969 217.5625 279.246094 " fill-opacity="1" fill-rule="nonzero"/><path fill="#ffffff" d="M 139.996094 26.742188 C 140.554688 26.542969 141.316406 26.15625 143.109375 24.71875 C 144.574219 23.546875 146.25 22.132812 145.910156 22.050781 C 145.910156 22.050781 145.90625 22.050781 145.90625 22.050781 C 145.171875 22.089844 139.375 26.140625 139.996094 26.742188 " fill-opacity="1" fill-rule="nonzero"/><path fill="#ffffff" d="M 132.820312 25.359375 C 133.4375 25.191406 134.429688 24.675781 136.617188 23.394531 C 140.300781 21.238281 140.34375 21.113281 140.386719 20.996094 L 140.386719 20.992188 C 140.382812 20.992188 140.382812 20.992188 140.382812 20.992188 C 139.84375 20.917969 133.25 24.503906 132.820312 25.359375 " fill-opacity="1" fill-rule="nonzero"/><path fill="#ffffff" d="M 222.535156 272.359375 C 222.421875 272.382812 222.308594 272.414062 222.199219 272.449219 C 220.726562 272.90625 219.957031 274.410156 221.828125 275.324219 C 223.476562 276.132812 226.257812 275.160156 225.753906 273.582031 C 225.660156 273.292969 225.066406 271.863281 222.535156 272.359375 " fill-opacity="1" fill-rule="nonzero"/><path fill="#ffffff" d="M 158.851562 50.660156 C 159.667969 51.710938 162.117188 51.382812 162.398438 48.0625 C 162.402344 48.03125 162.386719 45.101562 160.4375 45.375 C 158.21875 45.851562 157.921875 49.460938 158.851562 50.660156 " fill-opacity="1" fill-rule="nonzero"/><path fill="#ffffff" d="M 167.457031 59.824219 C 167.46875 59.835938 168.71875 60.871094 169.886719 60.042969 C 170.308594 59.75 171.425781 58.960938 171.304688 57.117188 C 171.296875 56.976562 171.046875 53.695312 168.503906 54.128906 C 166.015625 54.714844 165.953125 58.554688 167.457031 59.824219 " fill-opacity="1" fill-rule="nonzero"/><path fill="#ffffff" d="M 229.5 263.597656 C 227.023438 264.292969 226.917969 266.234375 228.160156 267.132812 C 229.550781 268.136719 232.976562 267.226562 232.691406 265.042969 C 232.515625 263.710938 231.296875 263.15625 229.5 263.597656 " fill-opacity="1" fill-rule="nonzero"/><path fill="#ffffff" d="M 216.597656 114.015625 C 218.5 115.230469 222.738281 114.421875 222.007812 110.09375 C 221.886719 109.378906 220.542969 105.980469 217.050781 106.988281 C 213.027344 108.371094 214.929688 112.957031 216.597656 114.015625 " fill-opacity="1" fill-rule="nonzero"/><path fill="#ffffff" d="M 245.652344 218.03125 C 241.578125 219.398438 242.617188 222.914062 243.265625 223.734375 C 244.78125 225.667969 249.460938 224.480469 249.703125 220.617188 C 249.742188 220.019531 249.15625 217.007812 245.652344 218.03125 " fill-opacity="1" fill-rule="nonzero"/><path fill="#ffffff" d="M 113.367188 32.40625 C 116.601562 30.027344 116.601562 30.027344 116.800781 29.855469 C 116.820312 29.835938 116.847656 29.808594 116.855469 29.785156 C 116.339844 30.003906 111.683594 33.476562 111.320312 33.910156 C 112.042969 33.464844 112.683594 32.910156 113.367188 32.40625 " fill-opacity="1" fill-rule="nonzero"/><path fill="#ffffff" d="M 138.929688 20.164062 C 138.683594 20.03125 132.761719 22.921875 132.066406 23.695312 C 132.253906 23.75 133.160156 23.304688 135.257812 22.214844 C 138.195312 20.6875 138.847656 20.324219 138.929688 20.164062 " fill-opacity="1" fill-rule="nonzero"/><path fill="#ffffff" d="M 217.449219 285.378906 C 218.429688 285.246094 218.625 284.988281 218.0625 284.582031 C 218.050781 284.574219 216.820312 283.808594 215.058594 284.121094 C 214.847656 284.160156 214.410156 284.25 214.273438 284.4375 C 213.9375 284.886719 215.726562 285.625 217.449219 285.378906 " fill-opacity="1" fill-rule="nonzero"/><path fill="#ffffff" d="M 156.320312 39.503906 C 156.535156 38.324219 156.535156 36.945312 155.324219 37.089844 C 153.488281 37.441406 152.757812 40.945312 153.425781 41.808594 C 154.054688 42.621094 155.863281 42.035156 156.320312 39.503906 " fill-opacity="1" fill-rule="nonzero"/><path fill="#ffffff" d="M 241.324219 254.609375 C 241.292969 253.734375 240.867188 252.347656 238.355469 252.957031 C 234.691406 254.082031 236.195312 256.628906 236.53125 256.929688 C 237.75 258.035156 241.40625 257.015625 241.324219 254.609375 " fill-opacity="1" fill-rule="nonzero"/><path fill="#ffffff" d="M 148.222656 24.394531 C 148.292969 24.324219 148.386719 24.226562 148.457031 24.152344 C 150.144531 22.402344 150.046875 22.207031 149.820312 22.210938 C 148.953125 22.347656 145.59375 25.457031 145.542969 26.167969 C 145.519531 26.492188 146.164062 26.492188 148.222656 24.394531 " fill-opacity="1" fill-rule="nonzero"/><path fill="#ffffff" d="M 178.753906 69.054688 C 180.332031 70.101562 183.339844 69.109375 182.6875 65.953125 C 182.347656 64.3125 181.277344 62.726562 179.289062 63.210938 C 176.269531 64.117188 177.3125 68.105469 178.753906 69.054688 " fill-opacity="1" fill-rule="nonzero"/><path fill="#ffffff" d="M 192.328125 78.148438 C 194.222656 79.257812 197.105469 77.882812 196.238281 74.96875 C 195.882812 73.789062 194.9375 71.886719 192.546875 72.429688 C 189.460938 73.289062 190.777344 77.238281 192.328125 78.148438 " fill-opacity="1" fill-rule="nonzero"/><path fill="#ffffff" d="M 242.941406 151.9375 C 244.640625 153.492188 248.988281 152.976562 248.613281 148.089844 C 248.507812 146.710938 246.835938 145.585938 246.816406 145.578125 C 245.746094 144.910156 244.734375 145.1875 244.191406 145.335938 C 240.445312 146.566406 241.503906 150.625 242.941406 151.9375 " fill-opacity="1" fill-rule="nonzero"/><path fill="#ffffff" d="M 215.109375 286.898438 C 214.960938 286.925781 214.652344 286.980469 214.65625 287.058594 C 214.667969 287.171875 215.382812 287.296875 216.515625 287.304688 C 217.074219 287.308594 218.378906 287.230469 218.441406 287.085938 C 218.40625 287.050781 218.34375 287.023438 217.90625 286.949219 C 217.890625 286.949219 216.320312 286.71875 215.109375 286.898438 " fill-opacity="1" fill-rule="nonzero"/><path fill="#ffffff" d="M 151.007812 33.160156 C 151.085938 33.375 151.335938 33.816406 152.019531 33.3125 C 152.402344 33.03125 152.960938 32.523438 153.425781 31.371094 C 153.757812 30.542969 154.191406 29.164062 153.332031 29.230469 C 152.1875 29.414062 150.683594 32.242188 151.007812 33.160156 " fill-opacity="1" fill-rule="nonzero"/><path fill="#ffffff" d="M 250.339844 181.15625 C 251.277344 181.808594 253.140625 181.839844 253.792969 181.386719 C 254.40625 180.960938 256.265625 179.660156 255.886719 177.289062 C 255.578125 175.378906 254.171875 173.800781 251.710938 174.585938 C 247.828125 176.019531 248.945312 180.183594 250.339844 181.15625 " fill-opacity="1" fill-rule="nonzero"/><path fill="#ffffff" d="M 123.339844 26.367188 C 123.367188 26.351562 126.429688 24.566406 126.773438 24.242188 C 126.773438 24.230469 126.773438 24.21875 126.773438 24.207031 C 126.269531 24.296875 121.640625 26.976562 121.023438 27.621094 C 121.027344 27.628906 121.027344 27.640625 121.03125 27.648438 C 121.226562 27.59375 121.785156 27.273438 123.339844 26.367188 " fill-opacity="1" fill-rule="nonzero"/><path fill="#ffffff" d="M 256.953125 202.152344 C 254.0625 203.101562 253.796875 206.085938 255.160156 207.457031 C 256.679688 208.976562 260.292969 207.351562 260.246094 204.550781 C 260.234375 203.996094 260.03125 201.277344 256.953125 202.152344 " fill-opacity="1" fill-rule="nonzero"/><path fill="#ffffff" d="M 251.164062 242.320312 C 251.171875 241.601562 250.925781 240 248.523438 240.632812 C 245.71875 241.476562 245.789062 243.859375 246.570312 244.683594 C 247.761719 245.9375 251.144531 244.5625 251.164062 242.320312 " fill-opacity="1" fill-rule="nonzero"/><path fill="#ffffff" d="M 234.558594 123.214844 C 236.527344 124.464844 239.9375 122.929688 239.078125 119.835938 C 238.855469 119.035156 237.90625 116.488281 234.988281 117.300781 C 231.703125 118.394531 232.933594 122.183594 234.558594 123.214844 " fill-opacity="1" fill-rule="nonzero"/><path fill="#ffffff" d="M 207.714844 86.996094 C 209.136719 87.894531 212.222656 87.332031 211.476562 84.1875 C 211.46875 84.15625 210.59375 81.03125 207.804688 81.847656 C 204.742188 82.894531 206.621094 86.300781 207.714844 86.996094 " fill-opacity="1" fill-rule="nonzero"/><path fill="#ffffff" d="M 153.734375 23.867188 C 153.867188 23.6875 155.007812 22.117188 154.449219 22.117188 C 153.628906 22.285156 151.902344 24.648438 151.929688 25.167969 C 151.929688 25.179688 152.175781 25.988281 153.734375 23.867188 " fill-opacity="1" fill-rule="nonzero"/><path fill="#ffffff" d="M 227.804688 281.863281 C 227.714844 281.882812 227.628906 281.90625 227.542969 281.9375 C 226.761719 282.199219 226.957031 282.605469 227.335938 282.796875 C 227.957031 283.109375 229.484375 282.855469 229.265625 282.191406 C 229.265625 282.183594 228.9375 281.632812 227.804688 281.863281 " fill-opacity="1" fill-rule="nonzero"/><path fill="#ffffff" d="M 259.441406 226.882812 C 257.949219 227.429688 256.898438 229.28125 257.867188 230.429688 C 258.851562 231.59375 261.511719 230.507812 261.707031 228.414062 C 261.851562 226.816406 260.671875 226.492188 259.441406 226.882812 " fill-opacity="1" fill-rule="nonzero"/><path fill="#ffffff" d="M 224.820312 95.707031 C 226.625 96.601562 228.644531 95.183594 227.800781 92.996094 C 227.253906 91.570312 225.992188 90.898438 224.660156 91.324219 C 222.238281 92.234375 223.511719 95.058594 224.820312 95.707031 " fill-opacity="1" fill-rule="nonzero"/><path fill="#ffffff" d="M 232.957031 276.308594 C 231.800781 276.597656 231.617188 277.324219 231.996094 277.695312 C 232.660156 278.339844 234.488281 277.769531 234.445312 276.933594 C 234.425781 276.582031 234.089844 276.058594 232.957031 276.308594 " fill-opacity="1" fill-rule="nonzero"/><path fill="#ffffff" d="M 261.355469 161.226562 C 262.484375 162.070312 265.144531 161.109375 264.757812 158.664062 C 264.5625 157.445312 263.929688 156.113281 262.019531 156.707031 C 259.539062 157.589844 260.292969 160.433594 261.355469 161.226562 " fill-opacity="1" fill-rule="nonzero"/><path fill="#ffffff" d="M 268.105469 185.371094 C 265.714844 186.222656 266.269531 188.828125 267.082031 189.414062 C 267.089844 189.421875 268.125 190.117188 269.398438 189.175781 C 269.683594 188.964844 270.550781 188.324219 270.414062 186.949219 C 270.332031 186.117188 269.925781 184.800781 268.105469 185.371094 " fill-opacity="1" fill-rule="nonzero"/><path fill="#ffffff" d="M 240.113281 268.800781 C 238.335938 269.332031 239.027344 270.53125 239.039062 270.542969 C 239.496094 271.113281 241.457031 270.675781 241.566406 269.511719 C 241.597656 269.175781 241.519531 268.425781 240.113281 268.800781 " fill-opacity="1" fill-rule="nonzero"/><path fill="#ffffff" d="M 185.304688 54.496094 C 186.09375 54.945312 187.738281 54.492188 187.1875 52.777344 C 187.011719 52.230469 186.46875 50.992188 185.207031 51.332031 C 183.492188 51.886719 184.546875 54.066406 185.304688 54.496094 " fill-opacity="1" fill-rule="nonzero"/><path fill="#ffffff" d="M 226.382812 285.371094 C 226.234375 285.296875 225.804688 285.148438 225.058594 285.300781 C 224.9375 285.328125 224.6875 285.382812 224.640625 285.464844 C 224.527344 285.679688 225.671875 285.808594 226.320312 285.585938 C 226.523438 285.515625 226.542969 285.445312 226.382812 285.371094 " fill-opacity="1" fill-rule="nonzero"/><path fill="#ffffff" d="M 174.203125 46.355469 C 174.769531 46.835938 176.328125 46.78125 176.105469 44.90625 C 176.101562 44.886719 175.796875 43.050781 174.421875 43.382812 C 173.074219 43.789062 173.554688 45.804688 174.203125 46.355469 " fill-opacity="1" fill-rule="nonzero"/><path fill="#ffffff" d="M 162.0625 29.835938 C 162.128906 29.402344 162.21875 28.402344 161.546875 28.496094 C 160.683594 28.679688 160.480469 30.445312 160.816406 30.835938 C 161.125 31.199219 161.878906 30.972656 162.0625 29.835938 " fill-opacity="1" fill-rule="nonzero"/><path fill="#ffffff" d="M 166.042969 38.492188 C 166.214844 38.636719 166.667969 38.917969 167.199219 38.4375 C 167.421875 38.238281 167.679688 37.832031 167.617188 37.066406 C 167.589844 36.699219 167.421875 35.507812 166.488281 35.707031 C 165.277344 36.050781 165.511719 38.046875 166.042969 38.492188 " fill-opacity="1" fill-rule="nonzero"/><path fill="#ffffff" d="M 253.007812 132.089844 C 253.980469 132.667969 256.601562 132.21875 256.019531 129.535156 C 256.015625 129.511719 255.417969 127.226562 253.285156 127.878906 C 250.855469 128.746094 252.011719 131.5 253.007812 132.089844 " fill-opacity="1" fill-rule="nonzero"/><path fill="#ffffff" d="M 198.832031 62.519531 C 199.761719 62.871094 200.007812 62.597656 200.324219 62.25 C 200.480469 62.078125 200.800781 61.582031 200.445312 60.730469 C 200.054688 59.792969 199.203125 59.304688 198.371094 59.542969 C 198.328125 59.558594 198.277344 59.574219 198.238281 59.589844 C 197.132812 60.058594 197.53125 62.03125 198.832031 62.519531 " fill-opacity="1" fill-rule="nonzero"/><path fill="#ffffff" d="M 249.207031 259.242188 C 247.964844 259.617188 247.578125 260.644531 247.925781 261.152344 C 248.257812 261.632812 249.242188 261.390625 249.253906 261.386719 C 249.261719 261.382812 250.296875 260.832031 250.441406 260.132812 C 250.515625 259.796875 250.4375 258.917969 249.207031 259.242188 " fill-opacity="1" fill-rule="nonzero"/><path fill="#ffffff" d="M 259.515625 247.996094 C 258.25 248.445312 258.339844 249.519531 258.507812 249.746094 C 258.859375 250.21875 260.285156 249.78125 260.503906 248.773438 C 260.546875 248.574219 260.695312 247.621094 259.515625 247.996094 " fill-opacity="1" fill-rule="nonzero"/><g clip-path="url(#0803ca467a)"><path fill="#ffffff" d="M 270.957031 211.824219 C 269.675781 212.28125 269.410156 213.8125 269.984375 214.445312 C 270.617188 215.148438 272.4375 214.25 272.492188 212.910156 C 272.519531 212.3125 272.351562 211.371094 270.957031 211.824219 " fill-opacity="1" fill-rule="nonzero"/></g><path fill="#ffffff" d="M 242.777344 104.039062 C 243.695312 104.5 245.359375 103.769531 244.757812 102.21875 C 244.523438 101.617188 243.949219 100.664062 242.730469 101.039062 C 240.941406 101.679688 241.988281 103.644531 242.777344 104.039062 " fill-opacity="1" fill-rule="nonzero"/><path fill="#ffffff" d="M 214.132812 70.292969 C 214.199219 70.316406 214.785156 70.535156 215.179688 70.15625 C 215.503906 69.847656 215.578125 69.480469 215.410156 69.066406 C 215.40625 69.054688 214.882812 67.816406 213.816406 68.101562 C 213.761719 68.121094 213.710938 68.140625 213.660156 68.164062 C 212.660156 68.632812 213.382812 69.996094 214.132812 70.292969 " fill-opacity="1" fill-rule="nonzero"/><g fill="#ffffff" fill-opacity="1"><g transform="translate(93.304663, 333.166413)"><g><path d="M 17.640625 0.25 C 14.722656 0.25 12.082031 -0.398438 9.71875 -1.703125 C 7.351562 -3.003906 5.503906 -4.785156 4.171875 -7.046875 C 2.847656 -9.316406 2.1875 -11.867188 2.1875 -14.703125 C 2.1875 -17.523438 2.847656 -20.070312 4.171875 -22.34375 C 5.503906 -24.613281 7.351562 -26.398438 9.71875 -27.703125 C 12.082031 -29.003906 14.722656 -29.65625 17.640625 -29.65625 C 20.554688 -29.65625 23.179688 -29.007812 25.515625 -27.71875 C 27.847656 -26.425781 29.6875 -24.640625 31.03125 -22.359375 C 32.375 -20.078125 33.046875 -17.523438 33.046875 -14.703125 C 33.046875 -11.867188 32.375 -9.3125 31.03125 -7.03125 C 29.6875 -4.75 27.847656 -2.960938 25.515625 -1.671875 C 23.179688 -0.390625 20.554688 0.25 17.640625 0.25 Z M 17.640625 -2.515625 C 19.960938 -2.515625 22.0625 -3.039062 23.9375 -4.09375 C 25.8125 -5.144531 27.28125 -6.597656 28.34375 -8.453125 C 29.414062 -10.316406 29.953125 -12.398438 29.953125 -14.703125 C 29.953125 -16.992188 29.414062 -19.070312 28.34375 -20.9375 C 27.28125 -22.800781 25.8125 -24.253906 23.9375 -25.296875 C 22.0625 -26.347656 19.960938 -26.875 17.640625 -26.875 C 15.316406 -26.875 13.207031 -26.347656 11.3125 -25.296875 C 9.425781 -24.253906 7.941406 -22.800781 6.859375 -20.9375 C 5.785156 -19.070312 5.25 -16.992188 5.25 -14.703125 C 5.25 -12.398438 5.785156 -10.316406 6.859375 -8.453125 C 7.941406 -6.597656 9.425781 -5.144531 11.3125 -4.09375 C 13.207031 -3.039062 15.316406 -2.515625 17.640625 -2.515625 Z M 17.640625 -2.515625 "/></g></g></g><g fill="#ffffff" fill-opacity="1"><g transform="translate(128.542657, 333.166413)"><g><path d="M 23.3125 -15.15625 C 25.238281 -14.738281 26.726562 -13.90625 27.78125 -12.65625 C 28.832031 -11.414062 29.359375 -9.816406 29.359375 -7.859375 C 29.359375 -5.335938 28.425781 -3.394531 26.5625 -2.03125 C 24.695312 -0.675781 21.945312 0 18.3125 0 L 4.78125 0 L 4.78125 -29.40625 L 17.46875 -29.40625 C 20.75 -29.40625 23.289062 -28.742188 25.09375 -27.421875 C 26.894531 -26.109375 27.796875 -24.25 27.796875 -21.84375 C 27.796875 -20.21875 27.394531 -18.835938 26.59375 -17.703125 C 25.800781 -16.566406 24.707031 -15.71875 23.3125 -15.15625 Z M 7.890625 -26.84375 L 7.890625 -16.171875 L 17.265625 -16.171875 C 19.640625 -16.171875 21.472656 -16.625 22.765625 -17.53125 C 24.054688 -18.445312 24.703125 -19.769531 24.703125 -21.5 C 24.703125 -23.238281 24.054688 -24.5625 22.765625 -25.46875 C 21.472656 -26.382812 19.640625 -26.84375 17.265625 -26.84375 Z M 18.265625 -2.5625 C 20.898438 -2.5625 22.890625 -3.007812 24.234375 -3.90625 C 25.578125 -4.800781 26.25 -6.203125 26.25 -8.109375 C 26.25 -11.773438 23.585938 -13.609375 18.265625 -13.609375 L 7.890625 -13.609375 L 7.890625 -2.5625 Z M 18.265625 -2.5625 "/></g></g></g><g fill="#ffffff" fill-opacity="1"><g transform="translate(160.210654, 333.166413)"><g><path d="M 29.359375 -29.40625 L 29.359375 0 L 26.296875 0 L 26.296875 -13.5625 L 7.890625 -13.5625 L 7.890625 0 L 4.78125 0 L 4.78125 -29.40625 L 7.890625 -29.40625 L 7.890625 -16.296875 L 26.296875 -16.296875 L 26.296875 -29.40625 Z M 29.359375 -29.40625 "/></g></g><g transform="translate(194.356651, 333.166413)"><g><path d="M 17.640625 0.25 C 14.722656 0.25 12.082031 -0.398438 9.71875 -1.703125 C 7.351562 -3.003906 5.503906 -4.785156 4.171875 -7.046875 C 2.847656 -9.316406 2.1875 -11.867188 2.1875 -14.703125 C 2.1875 -17.523438 2.847656 -20.070312 4.171875 -22.34375 C 5.503906 -24.613281 7.351562 -26.398438 9.71875 -27.703125 C 12.082031 -29.003906 14.722656 -29.65625 17.640625 -29.65625 C 20.554688 -29.65625 23.179688 -29.007812 25.515625 -27.71875 C 27.847656 -26.425781 29.6875 -24.640625 31.03125 -22.359375 C 32.375 -20.078125 33.046875 -17.523438 33.046875 -14.703125 C 33.046875 -11.867188 32.375 -9.3125 31.03125 -7.03125 C 29.6875 -4.75 27.847656 -2.960938 25.515625 -1.671875 C 23.179688 -0.390625 20.554688 0.25 17.640625 0.25 Z M 17.640625 -2.515625 C 19.960938 -2.515625 22.0625 -3.039062 23.9375 -4.09375 C 25.8125 -5.144531 27.28125 -6.597656 28.34375 -8.453125 C 29.414062 -10.316406 29.953125 -12.398438 29.953125 -14.703125 C 29.953125 -16.992188 29.414062 -19.070312 28.34375 -20.9375 C 27.28125 -22.800781 25.8125 -24.253906 23.9375 -25.296875 C 22.0625 -26.347656 19.960938 -26.875 17.640625 -26.875 C 15.316406 -26.875 13.207031 -26.347656 11.3125 -25.296875 C 9.425781 -24.253906 7.941406 -22.800781 6.859375 -20.9375 C 5.785156 -19.070312 5.25 -16.992188 5.25 -14.703125 C 5.25 -12.398438 5.785156 -10.316406 6.859375 -8.453125 C 7.941406 -6.597656 9.425781 -5.144531 11.3125 -4.09375 C 13.207031 -3.039062 15.316406 -2.515625 17.640625 -2.515625 Z M 17.640625 -2.515625 "/></g></g></g><g fill="#ffffff" fill-opacity="1"><g transform="translate(229.594644, 333.166413)"><g><path d="M 4.78125 -29.40625 L 7.890625 -29.40625 L 7.890625 -2.6875 L 24.359375 -2.6875 L 24.359375 0 L 4.78125 0 Z M 4.78125 -29.40625 "/></g></g></g><g fill="#ffffff" fill-opacity="1"><g transform="translate(254.332638, 333.166413)"><g><path d="M 26 -2.6875 L 26 0 L 1.890625 0 L 1.890625 -2.140625 L 21.375 -26.71875 L 2.1875 -26.71875 L 2.1875 -29.40625 L 25.5 -29.40625 L 25.5 -27.265625 L 6.046875 -2.6875 Z M 26 -2.6875 "/></g></g></g><g fill="#ffffff" fill-opacity="1"><g transform="translate(123.870201, 350.563542)"><g><path d="M 4.046875 0.125 C 3.335938 0.125 2.65625 0.0234375 2 -0.171875 C 1.351562 -0.367188 0.835938 -0.632812 0.453125 -0.96875 L 1.046875 -2.28125 C 1.410156 -1.976562 1.863281 -1.734375 2.40625 -1.546875 C 2.945312 -1.367188 3.492188 -1.28125 4.046875 -1.28125 C 4.722656 -1.28125 5.226562 -1.382812 5.5625 -1.59375 C 5.894531 -1.8125 6.0625 -2.097656 6.0625 -2.453125 C 6.0625 -2.710938 5.96875 -2.925781 5.78125 -3.09375 C 5.59375 -3.269531 5.351562 -3.40625 5.0625 -3.5 C 4.78125 -3.59375 4.394531 -3.703125 3.90625 -3.828125 C 3.207031 -3.984375 2.644531 -4.144531 2.21875 -4.3125 C 1.789062 -4.476562 1.421875 -4.734375 1.109375 -5.078125 C 0.804688 -5.429688 0.65625 -5.910156 0.65625 -6.515625 C 0.65625 -7.015625 0.789062 -7.46875 1.0625 -7.875 C 1.332031 -8.289062 1.742188 -8.617188 2.296875 -8.859375 C 2.847656 -9.109375 3.519531 -9.234375 4.3125 -9.234375 C 4.863281 -9.234375 5.410156 -9.160156 5.953125 -9.015625 C 6.492188 -8.878906 6.957031 -8.679688 7.34375 -8.421875 L 6.8125 -7.109375 C 6.414062 -7.347656 6 -7.523438 5.5625 -7.640625 C 5.125 -7.765625 4.703125 -7.828125 4.296875 -7.828125 C 3.628906 -7.828125 3.132812 -7.710938 2.8125 -7.484375 C 2.488281 -7.265625 2.328125 -6.96875 2.328125 -6.59375 C 2.328125 -6.332031 2.421875 -6.117188 2.609375 -5.953125 C 2.796875 -5.785156 3.03125 -5.65625 3.3125 -5.5625 C 3.601562 -5.46875 3.992188 -5.359375 4.484375 -5.234375 C 5.160156 -5.078125 5.710938 -4.914062 6.140625 -4.75 C 6.578125 -4.582031 6.945312 -4.320312 7.25 -3.96875 C 7.5625 -3.625 7.71875 -3.160156 7.71875 -2.578125 C 7.71875 -2.066406 7.582031 -1.609375 7.3125 -1.203125 C 7.039062 -0.796875 6.625 -0.472656 6.0625 -0.234375 C 5.507812 0.00390625 4.835938 0.125 4.046875 0.125 Z M 4.046875 0.125 "/></g></g></g><g fill="#ffffff" fill-opacity="1"><g transform="translate(138.102679, 350.563542)"><g><path d="M 5.46875 0.125 C 4.539062 0.125 3.703125 -0.0703125 2.953125 -0.46875 C 2.210938 -0.875 1.628906 -1.429688 1.203125 -2.140625 C 0.785156 -2.859375 0.578125 -3.660156 0.578125 -4.546875 C 0.578125 -5.429688 0.785156 -6.226562 1.203125 -6.9375 C 1.628906 -7.65625 2.210938 -8.21875 2.953125 -8.625 C 3.703125 -9.03125 4.539062 -9.234375 5.46875 -9.234375 C 6.394531 -9.234375 7.226562 -9.03125 7.96875 -8.625 C 8.71875 -8.21875 9.304688 -7.660156 9.734375 -6.953125 C 10.160156 -6.242188 10.375 -5.441406 10.375 -4.546875 C 10.375 -3.660156 10.160156 -2.859375 9.734375 -2.140625 C 9.304688 -1.429688 8.71875 -0.875 7.96875 -0.46875 C 7.226562 -0.0703125 6.394531 0.125 5.46875 0.125 Z M 5.46875 -1.359375 C 6.082031 -1.359375 6.628906 -1.492188 7.109375 -1.765625 C 7.597656 -2.035156 7.976562 -2.414062 8.25 -2.90625 C 8.53125 -3.394531 8.671875 -3.941406 8.671875 -4.546875 C 8.671875 -5.148438 8.53125 -5.695312 8.25 -6.1875 C 7.976562 -6.675781 7.597656 -7.054688 7.109375 -7.328125 C 6.628906 -7.609375 6.082031 -7.75 5.46875 -7.75 C 4.863281 -7.75 4.316406 -7.609375 3.828125 -7.328125 C 3.347656 -7.054688 2.96875 -6.675781 2.6875 -6.1875 C 2.414062 -5.695312 2.28125 -5.148438 2.28125 -4.546875 C 2.28125 -3.941406 2.414062 -3.394531 2.6875 -2.90625 C 2.96875 -2.414062 3.347656 -2.035156 3.828125 -1.765625 C 4.316406 -1.492188 4.863281 -1.359375 5.46875 -1.359375 Z M 5.46875 -1.359375 "/></g></g></g><g fill="#ffffff" fill-opacity="1"><g transform="translate(155.103311, 350.563542)"><g><path d="M 1.21875 -9.09375 L 2.90625 -9.09375 L 2.90625 -1.4375 L 7.671875 -1.4375 L 7.671875 0 L 1.21875 0 Z M 1.21875 -9.09375 "/></g></g></g><g fill="#ffffff" fill-opacity="1"><g transform="translate(168.945912, 350.563542)"><g><path d="M 5.140625 0.125 C 3.878906 0.125 2.894531 -0.222656 2.1875 -0.921875 C 1.488281 -1.628906 1.140625 -2.644531 1.140625 -3.96875 L 1.140625 -9.09375 L 2.828125 -9.09375 L 2.828125 -4.03125 C 2.828125 -2.25 3.597656 -1.359375 5.140625 -1.359375 C 6.679688 -1.359375 7.453125 -2.25 7.453125 -4.03125 L 7.453125 -9.09375 L 9.109375 -9.09375 L 9.109375 -3.96875 C 9.109375 -2.644531 8.757812 -1.628906 8.0625 -0.921875 C 7.363281 -0.222656 6.390625 0.125 5.140625 0.125 Z M 5.140625 0.125 "/></g></g></g><g fill="#ffffff" fill-opacity="1"><g transform="translate(185.257758, 350.563542)"><g><path d="M 3.0625 -7.671875 L 0.046875 -7.671875 L 0.046875 -9.09375 L 7.78125 -9.09375 L 7.78125 -7.671875 L 4.765625 -7.671875 L 4.765625 0 L 3.0625 0 Z M 3.0625 -7.671875 "/></g></g></g><g fill="#ffffff" fill-opacity="1"><g transform="translate(199.139349, 350.563542)"><g><path d="M 1.21875 -9.09375 L 2.90625 -9.09375 L 2.90625 0 L 1.21875 0 Z M 1.21875 -9.09375 "/></g></g></g><g fill="#ffffff" fill-opacity="1"><g transform="translate(209.343061, 350.563542)"><g><path d="M 5.46875 0.125 C 4.539062 0.125 3.703125 -0.0703125 2.953125 -0.46875 C 2.210938 -0.875 1.628906 -1.429688 1.203125 -2.140625 C 0.785156 -2.859375 0.578125 -3.660156 0.578125 -4.546875 C 0.578125 -5.429688 0.785156 -6.226562 1.203125 -6.9375 C 1.628906 -7.65625 2.210938 -8.21875 2.953125 -8.625 C 3.703125 -9.03125 4.539062 -9.234375 5.46875 -9.234375 C 6.394531 -9.234375 7.226562 -9.03125 7.96875 -8.625 C 8.71875 -8.21875 9.304688 -7.660156 9.734375 -6.953125 C 10.160156 -6.242188 10.375 -5.441406 10.375 -4.546875 C 10.375 -3.660156 10.160156 -2.859375 9.734375 -2.140625 C 9.304688 -1.429688 8.71875 -0.875 7.96875 -0.46875 C 7.226562 -0.0703125 6.394531 0.125 5.46875 0.125 Z M 5.46875 -1.359375 C 6.082031 -1.359375 6.628906 -1.492188 7.109375 -1.765625 C 7.597656 -2.035156 7.976562 -2.414062 8.25 -2.90625 C 8.53125 -3.394531 8.671875 -3.941406 8.671875 -4.546875 C 8.671875 -5.148438 8.53125 -5.695312 8.25 -6.1875 C 7.976562 -6.675781 7.597656 -7.054688 7.109375 -7.328125 C 6.628906 -7.609375 6.082031 -7.75 5.46875 -7.75 C 4.863281 -7.75 4.316406 -7.609375 3.828125 -7.328125 C 3.347656 -7.054688 2.96875 -6.675781 2.6875 -6.1875 C 2.414062 -5.695312 2.28125 -5.148438 2.28125 -4.546875 C 2.28125 -3.941406 2.414062 -3.394531 2.6875 -2.90625 C 2.96875 -2.414062 3.347656 -2.035156 3.828125 -1.765625 C 4.316406 -1.492188 4.863281 -1.359375 5.46875 -1.359375 Z M 5.46875 -1.359375 "/></g></g></g><g fill="#ffffff" fill-opacity="1"><g transform="translate(226.343693, 350.563542)"><g><path d="M 9.3125 -9.09375 L 9.3125 0 L 7.921875 0 L 2.90625 -6.15625 L 2.90625 0 L 1.21875 0 L 1.21875 -9.09375 L 2.609375 -9.09375 L 7.625 -2.9375 L 7.625 -9.09375 Z M 9.3125 -9.09375 "/></g></g></g><g fill="#ffffff" fill-opacity="1"><g transform="translate(242.928458, 350.563542)"><g><path d="M 4.046875 0.125 C 3.335938 0.125 2.65625 0.0234375 2 -0.171875 C 1.351562 -0.367188 0.835938 -0.632812 0.453125 -0.96875 L 1.046875 -2.28125 C 1.410156 -1.976562 1.863281 -1.734375 2.40625 -1.546875 C 2.945312 -1.367188 3.492188 -1.28125 4.046875 -1.28125 C 4.722656 -1.28125 5.226562 -1.382812 5.5625 -1.59375 C 5.894531 -1.8125 6.0625 -2.097656 6.0625 -2.453125 C 6.0625 -2.710938 5.96875 -2.925781 5.78125 -3.09375 C 5.59375 -3.269531 5.351562 -3.40625 5.0625 -3.5 C 4.78125 -3.59375 4.394531 -3.703125 3.90625 -3.828125 C 3.207031 -3.984375 2.644531 -4.144531 2.21875 -4.3125 C 1.789062 -4.476562 1.421875 -4.734375 1.109375 -5.078125 C 0.804688 -5.429688 0.65625 -5.910156 0.65625 -6.515625 C 0.65625 -7.015625 0.789062 -7.46875 1.0625 -7.875 C 1.332031 -8.289062 1.742188 -8.617188 2.296875 -8.859375 C 2.847656 -9.109375 3.519531 -9.234375 4.3125 -9.234375 C 4.863281 -9.234375 5.410156 -9.160156 5.953125 -9.015625 C 6.492188 -8.878906 6.957031 -8.679688 7.34375 -8.421875 L 6.8125 -7.109375 C 6.414062 -7.347656 6 -7.523438 5.5625 -7.640625 C 5.125 -7.765625 4.703125 -7.828125 4.296875 -7.828125 C 3.628906 -7.828125 3.132812 -7.710938 2.8125 -7.484375 C 2.488281 -7.265625 2.328125 -6.96875 2.328125 -6.59375 C 2.328125 -6.332031 2.421875 -6.117188 2.609375 -5.953125 C 2.796875 -5.785156 3.03125 -5.65625 3.3125 -5.5625 C 3.601562 -5.46875 3.992188 -5.359375 4.484375 -5.234375 C 5.160156 -5.078125 5.710938 -4.914062 6.140625 -4.75 C 6.578125 -4.582031 6.945312 -4.320312 7.25 -3.96875 C 7.5625 -3.625 7.71875 -3.160156 7.71875 -2.578125 C 7.71875 -2.066406 7.582031 -1.609375 7.3125 -1.203125 C 7.039062 -0.796875 6.625 -0.472656 6.0625 -0.234375 C 5.507812 0.00390625 4.835938 0.125 4.046875 0.125 Z M 4.046875 0.125 "/></g></g></g></svg>